<?xml version="1.0" encoding="UTF-8"?>
<svg version="1.1" viewBox="0 0 1600 800" width="1280" height="1280" xmlns="http://www.w3.org/2000/svg">
<path transform="translate(0)" d="m0 0h1600v800h-1600z" fill="#0138C2"/>
<path transform="translate(661,396)" d="m0 0h65l309 3 8 6 7 7 6 5v25l-11 178-5 79-1 1-1 14-2 2h-1l-1 7-3-1-3 6h2l-2 6-4 1-31 62-4-1 1-7-19-2v2h-19l-11 2-4 3-6 3h-2l-1 3h-27l-1-5 5-5-4-1-13-1 1-2-12-4-9-2-3-1 3 3-6-1-6-4-3-4h3v-2l-4-2-3-3-17-7-5-3-15-5-5 2-11 9-9 8-8 7-2 2h-15l-28-3-28-4 1-7h-2l-4-4-8-3-7-5-8-4-6-11-5-4-5 1-7 4-2-1 15-10 3-1 20 1 39 4 4 1 1-4h14v-2h-9l-56-6-3-2 1-2-5 2h-18l-7-1-1-4-3 2-21-1v-3l4-1-5 1-5 2-17-2-1-2 19 1 7-4h2v-2h-7v-2l7-1-1-2 1-2h-3v2l-6 3-3-1 6-3h2v-2h-11l-8-1v-2h19l-3-3-3-2 5-1v-3l-3-1 7-4-3-3-3-7-3-4v-16l1-7h-7l-23-8-53-19-26-9v-2l5-1 9 3v2l12 2 59 20 2 1v2l9 1 3 1 11 1 6-51 15-117 6-45 2-16 3-7 4-4z" fill="#072B3F"/>
<path transform="translate(799,213)" d="m0 0 14 1 15 4 12 5 13 9 10 10 7 10 7 14 4 15 1 8v10l-3 19-1 2 8 1 25 7 24 9 1 1v18l-3 39-1 2h20v-15l3-35 9 3 17 9 22 14 16 12 10 8 6 5v1h-102l-207-2h-65l-5 2-3 9-12 91-17 136-1 2h-11l-12-3v-2l-11-3-53-18-9-2v-2l-8-1-4-1h-2v2l9 2 37 13 36 13 20 7 7 1v23l5 7 2 5 3 2-7 4 1 4-2 2 4 4v1h-15l-5-1v2l19 1v2l-5 3 6-2v-2h3l1 4-1 1h-7v2h7v2l-9 5-18-1 18 2 5-3 6 1v1h-6v3h21l5-2-1 4 7 1h18l5-1v2l2 1 65 7v2h7v1l-21-1-1 4-25-2-30-3h-8l-8 4-8 6 9-5 5 1 6 7 3 7 11 6 5 4 9 3 2 4h2l-1 7 14 1 31 4 11 1h15l8-8 10-8 10-9 5-3 8 2 13 5 12 6 7 3 6 5v2l3 1-2 1h-2l5 4 6 2-4-4 9 3 13 3 5 2 7 1v1l11 3-5 4-1 2v4h-142l-131-17-114-15-32-5-29-4-5-18-5-37v-15l18-2 34-3 50-4 28-2 8-2 1-4-1-4 3-5-2-4-3 2-28 3-53 4-50 3h-6v-24l2-20 1-3-7-1-13-5-11-6-12-11-9-10-8-15-4-12-2-12v-15l3-16 6-15 7-11 12-13 10-7 14-7 14-4 8-1h15l15 3 17 6 13-18 13-16 18-20 10-10 8-7 14-12 20-15 19-12 9-5h2l-2 32-1 8-4 64-1 4v13l24 3 1-16 6-49-19-1-1-5 3-50 1-7 8-5 22-10 27-10 29-8h4l-3-11-1-6v-17l4-18 8-17 8-10 11-11 13-8 12-5 13-3z" fill="#E2E5EA"/>
<path transform="translate(0)" d="m0 0h568l-2 1 3 11 1 2-11 3-5 2h-3l3 16h-2l-3-15-18-7-6 2-10 5 2 15 10 3 6 3-2 1-13-5-6 2-9 6-2-1 12-8h2l-2-16-11-3-9-1-11 7-1 3 2 13 10 3v2l7 2 3 18-6 5-1 2-5 3-4 2-12-4h-5l-2-14-1-4-5-2-10-1-3 2 1-8-2-11-14 1-3 1v-7l-2-6-13 3-3 2v-7l-1-7-16 3-3-11v-3l-16 2-8 14v6l3 9 10-2h4l2-5 5-7 1 2-6 9 1 7 1 6 12-5h2l2 5 2 9-3 1-2-11h-4l-10 3-1 2-2-11-2-3-12 3-9 16 2 11 1 5h-2l-3-13-13 3-3 5-6 12 1 8 2 7 8-1-4 3-5 1-3-8-2-6-15 2-1 5-6 13 3 12 1 5 9-2-2 2-7 2-2 6-2 1 2-6-1-7-3-11-2 1-13 1-8 19 3 10 1 7 16-3-1 4v-2l-11 3h-4l-1 2-5-20-16 1-8 16 1 10-2-2-1-6-10-1-8-2-2 6-6 10 1 7 2 6-1 4-5-14-15-5-4 1-9 11 2 9 3 11 6 1v1l-8-1-5-16-2-4-18-8-4 2-9 8 6 18 1 2-16 6 1 12-3-1h2l-2-11-6-2-14-7-11 3-5 2 1 3v7l6 2 10 5 18-1-4 2-10 2-3 13h-2l1-8 1-5-16-8-20 1-2 15 5 2 3 3-6-2-4-2-12 2-9 2-4 18 5 2 10 6-7 17 4 3 7 3 5 1-4 4v-3l-15-5-2-1 3-3 5-12 1-4-5-2-9-5-5 1-16 6-6 16-1-3 3-10-1-5-12-8-6 1-15 7-5 18v4l12 8 5-1 9-5 3 1-13 7h-2l-2 9-3 11 12 6h5l-3 8-3 11 3 1h-4l1-9 2-9-9-3-8-3 6-18v-4l-14-8-6 2z" fill="#0458CB"/>
<path transform="translate(661,396)" d="m0 0h65l309 3 8 6 7 7 6 5v25l-11 178-5 79-1 1-1 14-2 2h-1l-1 7-3-1-3 6h2l-2 6-4 1-31 62-4-1 1-7-19-2v2h-19l-11 2-4 3-6 3h-2l-1 3h-27l-1-5 5-5-4-1-13-1 1-2-12-4-9-2-3-1 3 3-6-1-6-4-3-4h3v-2l-4-2-3-3-17-7-5-3-15-5-5 2-11 9-9 8-8 7-2 2h-15l-28-3-28-4 1-7h-2l-4-4-8-3-7-5-8-4-6-11-5-4-5 1-7 4-2-1 15-10 3-1 20 1 39 4 4 1 1-4h14v-2h-9l-56-6-3-2 1-2-5 2h-18l-7-1-1-4-3 2-21-1v-3l4-1-5 1-5 2-17-2-1-2 19 1 7-4h2v-2h-7v-2l7-1-1-2 1-2h-3v2l-6 3-3-1 6-3h2v-2h-11l-8-1v-2h19l-3-3-3-2 5-1v-3l-3-1 7-4-3-3-3-7-3-4v-16l1-7h-7l-23-8-53-19-26-9v-2l5-1 9 3v2l12 2 59 20 2 1v2l9 1 3 1 11 1 6-51 15-117 6-45 2-16 3-7 4-4zm3 17-2 13-8 65-1 20 1 2h-2l1 5-1 1-1 6v5h-1l-2 8-2 3 1 2h2l-2 8-2 27 3 3 6 4 3 1 2 9 1 1v7l-3 4-1 8v6l189 15 25 2h6l1 2 1-1h18v3l-10 1 2 6-2 1v3l-3 1 1 2-3 2-1 3-5 1 2 5h2v2h13v-2h3l1 2 4-3v-2h-3v-5l-2-6h3v2h2l1 2 6-1v2l-2 1 1 3 3 1v-2l2-1-2 6h-2l1 2h4l-1 3h3v-3l2 1 1 3 17 2 48 4h4v-2h2v2l11 1h3 12l2-7v-3-3l3-2 3 1v3l3 1v-5l1-2h-2l-1-3 3-2-1-2-3 1 3-6 3-4v-20l1-3-1-2-3 1 1-6 2-1-2-5h3l1-4v-22l2-10 7-110 2-32v-13l-4-1-288-4-57-1z" fill="#051B2A"/>
<path transform="translate(1057,420)" d="m0 0 7 6 11 12 11 14 13 18 3 1 16-6 12-2h17l14 3 13 5 12 7 12 11 8 10 8 15 4 14 1 6v21l-4 16-5 12-7 11-11 12-13 9-15 7-7 2 2 26v40l-3 31-5 27-6 24-9 26-1 2h-207l1-3 10-5v-2l17-2 15 1v-2h13l7 2-2 7 4 1 2-6 28-56 3-3 1 2 3-6h-2l-1 2 1-5 4-5v3h2v-9l2-2 1 2 1-14 1-1 12-192 5-81z" fill="#E2E5EA"/>
<path transform="translate(799,213)" d="m0 0 14 1 15 4 12 5 13 9 10 10 7 10 7 14 4 15 1 8v10l-3 19-1 2 8 1 25 7 24 9 1 1v18l-3 39-1 2h20v-15l3-35 9 3 17 9 22 14 16 12 10 8 6 5v1h-102l-207-2h-65l-5 2-3 9-10 76h-1v-11l7-57-19-1-1-5 3-50 1-7 8-5 22-10 27-10 29-8h4l-3-11-1-6v-17l4-18 8-17 8-10 11-11 13-8 12-5 13-3z" fill="#E2E5EA"/>
<path transform="translate(621,665)" d="m0 0h9l26 3-1 2 12 2 115 11 103 9 90 8h13l2-1v2h20l3-1 16 1 9 2v11l-2 2h-1l-1 7-3-1-3 6h2l-2 6-4 1-31 62-4-1 1-7-19-2v2h-19l-11 2-4 3-6 3h-2l-1 3h-27l-1-5 5-5-4-1-13-1 1-2-12-4-9-2-3-1 3 3-6-1-6-4-3-4h3v-2l-4-2-3-3-17-7-5-3-15-5-5 2-11 9-9 8-8 7-2 2h-15l-28-3-28-4 1-7h-2l-4-4-8-3-7-5-8-4-6-11-5-4-5 1-7 4-2-1 15-10 3-1 20 1 39 4 4 1 1-4h14v-2h-9l-56-6-3-2 1-2-5 2h-18l-7-1-1-4-3 2-21-1v-3l4-1-5 1-5 2-17-2-1-2 19 1 7-4h2v-2h-7v-2l7-1-1-2 1-2h-3v2l-6 3-3-1 6-3h2v-2h-11l-8-1v-2h19l-3-3-3-2 5-1v-3l-3-1 7-4-3-3-3-7z" fill="#AFB5BF"/>
<path transform="translate(664,413)" d="m0 0h28l345 5 4 1v13l-6 92-3 50-2 13v18h-2v-3l-2 4h-2v-2h-6l-1-3-3-2-1-3-2-1v2l-6 2-2-1v-5l3-4-5 2-1-11h4l1-4h-2l-1 3h-2l-1 6-1 5-2-1-1-5-5 1-1-4-2 4h2l1 4-3 4h-2l-3 10h-1v-12l1-8h3l1-3h2v-2l5 2-1-3-2-1v-2h2v-2l-2-1 1-2h4v-2l-3 1-2-4 1-9h3v-2l-4-2h-5l-1-3 6-87 2-28 1-2h-45l-221-4h-32l20 1v1h-8v3h-17l-1 2 15 1v3l-6 1 1 5v2h-9v1h9l-1 3h-3l-2 4 7 1h26v2l-2 1h-16l8 2v2h2v-2h30l1 2 10 1v2l5-1 5 1v2h-23l8 1-2 3h-8l-7-1h-9v-2l7-1-1-2-1 1h-6l-1 3-2 1h-16l-2-1h-10l1 3-5 2h3l-1 3 5 1 19 1v2l-5 1 6 1v2h-20l1-3h-4l1 2h-7v-3h-3l-1 5h19v3h7l10 2v3h2l-1-3 9-1 7 1 4 1v2l6 1v3l-4 1-2 5-2 2h-14l9 1v3l-47-2v4l-2 1 2 1 5-1 7 1-1 6-1 1 10 1v-2h-7v-2h21l1 3-4-1 1 2 31 2h17l1 1h16l14 1v3l-10 1v3h-3l-11-1v-2l10-1-20-1 8 1v3h-15l4 1v2h-20l-1-4v4l-5-1h-8v-3l5-1h-6v4h-9l-17-1v-2l-2 1h-8v3l4 1h-5l3 1v6l-4 2h2 3v-3h19l12 1 1 2-5 1-1 3h-11l-7 1v2h-2l1 5 2-6 1-1h12l11 1 1 3-21-1 7 1 22 1 4 1v2h-17l-11-1-1 5 12 1v3h2v-3l2-1h-14v-3h14l11 1 1 4 7-1 1-3h7l1 5 3 2v-2l-3-1 1-3h12l18 1 5 1v3h-8v4 4l-2 1v4h9v3h-14l-8-1-1-7h-3l2 7 1 3-1 1-23-1v-3h10l2 1 1-2h-15v3h-16l21 2v3h-2v3h-2v-3h-3l1 3h-3l-1-3-15-1-1 1h-11l-4-1 1 2 7 1-1 2h-10l-2 2v3h-9v2l2 1-3 2v3l2 1 2 4 5 1v2l-7 1v3l-3 1 111 8 25 1 3 1 98 7 31 2 2 1 1-14v-10l1-11h4l-1 4v4l1 4-1 1 6 1v2l-6 1v6l2 1h-5v11l16 1v6h-6l-1 3v-3l-32-2-2 3h5v2h2v3l5-2-1 7h9l4 1 1 9 1-2h2l1-5 3-1 1 5 3-1v2l5 1 4 1v3h5v2l4-2 8 5v2h2l1-8 1-3-2 2-1-4 5-2-5-8h-2l1-3-1-2-2 2-2 5-5 4 2 6-1 2-7 1v-3l-2-2 4-6 2-1 1-2h2l-2-3v-6l-3-1v-4-1l-4-1 2-2-1-6 1-2-2-1 1-2 4-1 2 3-1 3h2v-2h3l1 3-2-14h2l1-1h1l1-7h2v-6l3-2 7 1 3 3 2 5 3-3-2 6 2-3 2 1v9l-1 2v5h-2v-7l-1 3h-3v-3l-3 3 1 3 2 1-1 3h6l2-3h3l1 7-6 7h2l-1 7h4l6-6-1 7-3 5-1 2 4-1-1 3-2 1 1 3 2 1-2 6-2-1v-3l-4-1-3 4 2 3-2 3-1 5h-12-3l-11-1v-2h-2v2l-38-3-25-2-6-1-1-3-2-1v3l-3-1 1-2h-5v-2h2l2-6-2 1-1 2-3-2v-2l3-2-5-1-3 1v-2h-2v-2h-3l1 6h1v5h3l-1 3-4 2-1-2h-2v2h-13v-2h-2l-2-5 6-2v-3l3-2-1-2h3v-4h2l-2-6h5l5-1v-3h-18l-2 1v-2l-20-1-190-15-10-1v-9l2-7 2-2v-7l-2-7-1-3-6-3-5-3-1-7 2-22 2-8h-2l-1-3 3-4 1-6h1v-7l2-4-1-2v-4l2-1-1-1 1-20 8-65zm73 80m14 75v1h7v-1z" fill="#103046"/>
<path transform="translate(692,426)" d="m0 0h35l221 4 45 1-5 76-1 1h-13v-3l9-1 1-11-2-3-7-2-1-2 2-1v-3l-3-1h3l-2-6h2v-2l-3-1 2-1 1-4-2-1 5-5-6-2v-4l-2 1h-8l-2-2h-5l-2 7-1-4-6 1-2 2v-3l-7 1-1-2h6v-2l-12 3v2h-5v-3h-12l-1 3h-6l-1-3-14-1 4 3h-20v-3l-12-1-9-3-1-4h2v-2l-9-2v-3l-6-3 1-2h14v-2l-12-1-1 2-1-2-2 2h-3v-2l-4 1-2-1v2l2 1-18 2h-5l1 11 1 7-1 2 13 1v1h-13l1 9h-2l1 5 2 2h-4l-1 10-1 7-1 4 15-1 2-1-1 14-2 19-1 5-1 17-7 72-1 5 3 1h-12l-112-8 1-2h3v-3l7-1-1-2h-5l-1-5-3-1v-2l2-6 3-1 2 1 1-2v2h3v-3l-2-1 2-2h12l-7-2v-2h15l4-1 12 1 2 2-1 2 2-1v-2h3v3h2v-3h2v-3l-25-1 4-2 16 1v-3h15l-1 3-2-1-10-1v3h23v-1l-6-1v-1h6l-1-2-3-2h3l-2-4h5l-1 4 2 1-1 3 22 1v-3h-9v-4l-4-1h6l-3-4 3-1 1-2-2-1 3-1 6 1v-3l-23-1h-12l-1 2h8v1h-5l1 3-8-4h3v-4l-7 1-1 2 3 1-10 1-9-1v-1h8v-3h-11l-14-1v3l15-1 1 2h-4v3h-2v-3h-12l-11-1v-1h12v-3h-7v-1l8-1 27 2v-2l-4 1v-2l-4 1-28-2 3-2h9l10 1 2 1-1-2-11-1h-12l-3 6-2-1 1-4h2v-2l-2-1 16-1 4 1v-2l-2-1 5-2-29-2v3l-5 2v-2l-3-1 6-1 1-6-3 1 1-6 10-1v2l8-1 14 1 4 1v-4h6l1-3 1 4h-7v3h8l1-3 1 3 3 1v-4l2 1-1 3 6-1 14 1v-2l-4 1v-2l-4 1-9-1v-1h23l5 1v-3h-9l1-2 20 1 1 2h-11v2h9l2 1 1-2h2l-1-2h11v-3h-31l-1-1h-17l-30-2-1-3 4 1-1-2h-14l-7-1v2h7v2h5v1l-15-1-1-2h2v-2l-2-1h3v-3h-10l-3 1-2-3h3v-4l6-1 37 2 4 1v-3h-12l4-2h13l4-6 4-1v-3h-7l1-3h-9l-4-1-3 1-4-1 1 2 13 1v1h-15l-1-2 1-2-10-1-7-1v-3l-17 1-2-1 1-5h3v3l6-1-3-2 9-1 5 1v1l-7 1-1 2 7-1h11l2 1v-2h-11v-1l8-2 2 1v-2h-22l-4-2 3-3-4 1-1-2 6-1v-3l11-1 1 1h16l3-3 6-1 2-2 1 5h-8v2l10-1 6 1h8l1-1-9-1 3-2h13l9 1v-2h-10v-2h-10l-1-3h-30v2h6v1h-15v-1h7v-2l-16-1v-1l10-1h16l-1-1h-26l-7-1 3-6 3-1-8-1-1 2-1-3 5-1 6 1-3-4h3l-2-4h7v-3h-13l-2-1 1-3h11l6 1v-3l-12-1zm284 31 1 2zm-239 36m14 75h7v1h-7z" fill="#082A3E"/>
<path transform="translate(664,413)" d="m0 0h28l345 5 4 1v13l-6 92-3 50-2 13v18h-2v-3l-2 4h-2v-2h-6l-1-3-3-2-1-3-2-1v2l-6 2-2-1v-5l3-4-5 2-1-11h4l1-4h-2l-1 3h-2l-1 6-1 5-2-1-1-5-5 1-1-4-2 4h2l1 4-3 4h-2l-3 10h-1v-12l1-8h3l1-3h2v-2l5 2-1-3-2-1v-2h2v-2l-2-1 1-2h4v-2l-3 1-2-4 1-9h3v-2l-4-2h-5l-1-3 6-87 2-28 1-2h-45l-270-5v11l-9 70-1 1-7-1v2h2v2h-2l-2 5-2 2 1-5 1-1h-5l-1-1 1-20 8-65z" fill="#DFE3E8"/>
<path transform="translate(645,676)" d="m0 0 18 1 3 1h10l10 1v3l3-2h10l9 1 1 3 3-2 19 1 1 4v-2l2-1 19 1 2 3 3-2 17 1 3 2 3-1 16 1 4 1-1 4h2l1-3h10l12 1v3l3-2h11l10 1 1 3 3-2 19 1 2 1v2l5-2 20 2v3h2v-2h10l13 1v4l5-3h7l1 1h9l4 1v4l5-4 21 2-1 5h-2l-1 6h-3l-1 6h-2l-2 4-3 4h-3l1 4-4 4-28-2-2-1-1 6-3 3h-12l-10-1-2-1 1-4 4-4-4-2 2-5v-2l-3-1v5l-3 2h-15l-7-1v-4l4-4-5-1 1 4-4 3 3 2-1 4-5 4h-14l-8-1v-4l4-5-2-1v-3l-6 1v2l4-1 2 4-6 6-26-2-4-1 1-4 11-9 2-2-3-2-1 5-7 3-2 4-3 3-9 1-68-7-46-5-3-2 1-2-5 2h-18l-7-1-1-4-3 2-21-1v-3l4-1-5 1-5 2-17-2-1-2 19 1 7-4h2v-2h-7v-2l7-1-1-2 1-2h-3v2l-6 3-3-1 6-3h2v-2h-11l-8-1v-2h19l-3-3-3-2h7l-1-4 12-6z" fill="#0F2435"/>
<path transform="translate(244)" d="m0 0h132l-1 6-8 13-3 1-13 1-2-8h-2l2 5v6l-8 15-6 1 5 1 5 14-1 7-7 15-13 3-3-2-6-18h-9l-8-1-1-6h-2l2 9-8 17-4 1-14-3-6-17-2-7v-2l-5 1-13-4-3-4-7-20 2-6 7-11 7 1 8 1-13-4z" fill="#013CC3"/>
<path transform="translate(621,665)" d="m0 0h9l26 3-1 2 12 2 115 11 103 9 90 8h13l2-1v2h20l3-1 16 1 9 2v11l-2 2h-1l-1 7-3-1-3 6h2l-2 6-4 1-14 28h-3l-24-2h-13l-27 2-4 1h-14l-8-4-5-4-2-5 8-2 1-2-7-1v-1l9-1 3-4 1-4 32 2 1-7 4-2 4-6h2l1-6h3l1-6 2-1 1-4h-10l-11-1-3 3h-2v-4h-14v-2l-7 1-2 2h-3v-4h-13l-10-1v2h-2v-3h-11l-9-1-3 2-3-1 1-2-21-1-4 2v-3l-10-1h-11l-4 2 1-4h-22l-1 2h-2l1-4-20-1-4 2v-2l-2-1-17-1-5 2v-3l-21-1v2l-2-1 1-3h-19l-5 2 1-4h-19l-5 2 2-4h-22l-1-1-18-1-8 4-9 4v4l-4-1h2v-3l-3-1 7-4-3-3-3-7z" fill="#A3AEBC"/>
<path transform="translate(660,612)" d="m0 0 3 1-1 2h-2zm341-11 7 1 3 3 2 5 3-3-2 6 2-3 2 1v9l-1 2v5h-2v-7l-1 3h-3v-3l-3 3 1 3 2 1-1 3h6l2-3h3l1 7-6 7h2l-1 7h4l6-6-1 7-3 5-1 2 4-1-1 3-2 1 1 3 2 1-2 6-2-1v-3l-4-1-3 4 2 3-2 3-1 5h-12-3l-11-1v-2h-2v2l-38-3-25-2-6-1-1-3-2-1v3l-3-1 1-2h-5v-2h2l2-6-2 1-1 2-3-2v-2l3-2-5-1-3 1v-2h-2v-2h-3l1 6h1v5h3l-1 3-4 2-1-2h-2v2h-13v-2h-2l-2-5 6-2v-3l3-2-1-2h3v-4h2l-2-6h5l5-1v-3h-18l-2 1v-2l-20-1-190-15-10-1v-6l19 2h9l1-3h7l1 3-3 1 111 8 25 1 3 1 98 7 31 2 2 1 1-14v-10l1-11h4l-1 4v4l1 4-1 1 6 1v2l-6 1v6l2 1h-5v11l16 1v6h-6l-1 3v-3l-32-2-2 3h5v2h2v3l5-2-1 7h9l4 1 1 9 1-2h2l1-5 3-1 1 5 3-1v2l5 1 4 1v3h5v2l4-2 8 5v2h2l1-8 1-3-2 2-1-4 5-2-5-8h-2l1-3-1-2-2 2-2 5-5 4 2 6-1 2-7 1v-3l-2-2 4-6 2-1 1-2h2l-2-3v-6l-3-1v-4-1l-4-1 2-2-1-6 1-2-2-1 1-2 4-1 2 3-1 3h2v-2h3l1 3-2-14h2l1-1h1l1-7h2v-6z" fill="#C2CBD7"/>
<path transform="translate(0,161)" d="m0 0h7v2h-4l1 8 9 3 12 6 1 5 11-2h5l-2-10-3-4 14 1v2l-8 1 3 9 8 4-1 2 12 7-1 17 13 9 8-1 14-3 1-5v-8l-15-9 2-1 13 7 7 1 14-2-2-10-14-7v-2l5 2 8 4h7l9-3 1-3h2v3l5 2 2 2-5-1-3-1-13 4v4 7l6 2 10 5 18-1-4 2-10 2-3 13h-2l1-8 1-5-16-8-20 1-2 15 5 2 3 3-6-2-4-2-12 2-9 2-4 18 5 2 10 6-7 17 4 3 7 3 5 1-4 4v-3l-15-5-2-1 3-3 5-12 1-4-5-2-9-5-5 1-16 6-6 16-1-3 3-10-1-5-12-8-6 1-15 7-5 18v4l12 8 5-1 9-5 3 1-13 7h-2l-2 9-3 11 12 6h5l-3 8-3 11 3 1h-4l1-9 2-9-9-3-8-3 6-18v-4l-14-8-6 2z" fill="#0458CB"/>
<path transform="translate(726,427)" d="m0 0h57l165 3 45 1-5 76-1 1h-13v-3l9-1 1-11-2-3-7-2-1-2 2-1v-3l-3-1h3l-2-6h2v-2l-3-1 2-1 1-4-2-1 5-5-6-2v-4l-2 1h-8l-2-2h-5l-2 7-1-4-6 1-2 2v-3l-7 1-1-2h6v-2l-12 3v2h-5v-3h-12l-1 3h-6l-1-3-14-1 4 3h-20v-3l-12-1-9-3-1-4h2v-2l-9-2v-3l-6-3 1-2h14v-2l-12-1-1 2-1-2-2 2h-3v-2l-4 1-2-1v2l2 1-18 2-6 1h-72l-8-5zm250 30 1 2z" fill="#0C2F48"/>
<path transform="translate(394)" d="m0 0h174l-2 1 3 11 1 2-11 3-5 2h-3l3 16h-2l-3-15-18-7-6 2-10 5 2 15 10 3 6 3-2 1-13-5-6 2-9 6-2-1 12-8h2l-2-16-11-3-9-1-11 7-1 3 2 13 10 3v2l7 2 3 18-6 5-1 2-5 3-4 2-15-5-1-1-3-18-16-3-2-16v-1l-16 1-3-9v-3l-9 2h-6l-2-4v-8h-1l-9 3-7 1-3-12z" fill="#0139C2"/>
<path transform="translate(1105,493)" d="m0 0h66l-1 19-3 38-2 12-24 7h-7l-24-7-2-16-4-52z" fill="#EDE3BA"/>
<path transform="translate(713,314)" d="m0 0h5l1 4-4 4-31 9-28 11-21 10-1 1-1 7-3 54 19 1 1 2-8 64-15-1-9-1-1-1v-13l1-4 4-64 3-36 1-4-16 9-18 12-17 13-10 9-8 7-10 9-9 9-7 8-11 13-12 16-8 11-6-2 1-5 13-18 8-10 11-13 14-15 16-15 15-13 17-12 18-12 19-11 16-8 22-10 18-7 25-7z" fill="#0457CB"/>
<path transform="translate(768,244)" d="m0 0h64l1 4-5 58-2 6-24 7-10-2-18-5-2-6-4-49z" fill="#0559CC"/>
<path transform="translate(423,494)" d="m0 0h65v9l-5 57-6 3-17 5h-8l-24-7-4-45z" fill="#8E7174"/>
<path transform="translate(499,776)" d="m0 0h29l58 7 97 12 26 4v1h-238v-16l4-3z" fill="#E3E6EB"/>
<path transform="translate(385,3)" d="m0 0h8l4 13 10-2h5l2 7v6l2-2 13-3 3 7v6l2-1h14l3 11v5h1l13 2 3 2 2 9v10l-6 5-6 7h-18l-2-19h-15l-2-11v-4l-14 1-3-13-8 4-6 1-3-9 1-5 4-7-6 9-14 3-4-10v-6l9-15z" fill="#0138C2"/>
<path transform="translate(882,314)" d="m0 0 11 1 25 7 28 11 29 14 21 12 16 11 12 9 11 9 13 11 28 28 9 11 10 13 10 14 1 5-6 2-8-10-8-11-13-16-12-13-1-1-1 5h-1l-1-9-13-12-7-5-5-5-8-7-15-11-15-10-15-9-15-8-7-3-1 22-2 28h-20l3-41v-18l-24-9-25-7v-2l-5-2z" fill="#0557CB"/>
<path transform="translate(621,665)" d="m0 0h9l26 3-1 2 12 2 115 11 103 9 90 8h13l2-1v2h20l3-1 16 1 9 2-1 4-2 3-5 1-14 4-11 1-4 2-10-2h-13l-4 3-2-1 1-7 2-1 1-4h-10l-11-1-3 3h-2v-4h-14v-2l-7 1-2 2h-3v-4h-13l-10-1v2h-2v-3h-11l-9-1-3 2-3-1 1-2-21-1-4 2v-3l-10-1h-11l-4 2 1-4h-22l-1 2h-2l1-4-20-1-4 2v-2l-2-1-17-1-5 2v-3l-21-1v2l-2-1 1-3h-19l-5 2 1-4h-19l-5 2 2-4h-22l-1-1-18-1-8 4-9 4v4l-4-1h2v-3l-3-1 7-4-3-3-3-7z" fill="#8D7174"/>
<path transform="translate(671,727)" d="m0 0 20 1-2 2 14 2 1 2 17 8 11 2 14 5 5 4 8 3 6 3 16 4 8 4-12 12h-15l-28-3-28-4 1-7h-2l-4-4-8-3-7-5-8-4-6-11-5-4-5 1-7 4-2-1 15-10z" fill="#AFB5BF"/>
<path transform="translate(842,431)" d="m0 0 2 1 12 1v2l-14 1 2 2 4 2-1 3 14 1v1h-5l-1 6h5l1 2-5 1v2l4 1h-11l-1-4h-2l-4-11-6 1v14l-4 38-3 3 2 1-1 18-1 8-1 2 1 6-2 12-1 2v11l-1 3-1 15-1 5-1 11h-3v2h3v6l-2 2 1 5-1 10v3 8l-10-2 2-25 6-62v-11l1-1 3-27v-5l-5 1h-11v-9l3-12 2-1-1-1v-5h2l-1-2v-7l3-1-3-1-1-13v-7l5-1 9-1 7-1v-2h6v2z" fill="#193A55"/>
<path transform="translate(1e3 575)" d="m0 0v3l-4 4 1 5-1 4 5-2-3 9 8-1v-2l3 1 1 3 5 3v2h4v2l2-1v-3h2v3l2 1-1 4h-3l2 5-2 1-1 6 3-1 1 4-1 3v18l-2-2-5 5-2 1v-2h-2l1-7h-2l2-7 2 2 1-4v-5l-3 1-2 3-6-1-1-4-3-4 5-2v3h3l-1-3h2l1 4-1 3h2l-1-6 1-5v-5l-1 1-3 2 1-4-2 1-2-8-9-1-3 1 1 4-1 2h-2v8l-1 2h-2v-2h-2l2 6 1 8h-3l1-3h-3v2h-2l-1-3v-2h-4l2 13h5l-3 4-1 2 4 1v6l2 3-3 3-4 2-2 4 2 3-1 2 5-2 2 1-1-7-1-2 6-4 3-7 3 3-2 1v2l3-1 4 7v2l-5 2 1 3 4-3-2 7-2 6h-2l-1-2-8-4-3 1v-2h-5l-1-2-5-2-6-2v-2l-2-1 1-2-3 3-2 5h-2l-2-7 1-2-13-1v-6l-4 1v-3h-2v-2l-7 2 1-3h2l1-3 28 2 5 1h6v-6l-16-1v-11l5-1 7-7 1-2 3 1 1-2-12-1v-1h10l2 1 1-13 2-2 3-7 4-4v-4h-2l1-4h3v3h4l2 5 1-4 1-6 3-3z" fill="#183250"/>
<path transform="translate(451,750)" d="m0 0 14 1 108 14 38 5 5 3v2h14l14 2v2h2l2-5h9l53 7 10 2v7l-1 1h-7v2l-14-1-131-17-59-8-35-5-20-3z" fill="#B9B7C0"/>
<path transform="translate(454,759)" d="m0 0 19 2 35 5 74 10 170 22 7 1v1h-50l-42-6-57-7-47-6-35-4h-29l-24 5-3 2-1 16h-6l-10-31z" fill="#14305E"/>
<path transform="translate(955,347)" d="m0 0 9 3 17 9 22 14 16 12 10 8 6 5v1h-102l2-2h17v-15z" fill="#DFE2E8"/>
<path transform="translate(376)" d="m0 0h18l3 11v4l15-4 4-3-1 3v8l1 3 15-1 3 10 1 1 16-1 1 18h7l10 2 3 20-2 1-2-14-1-4-5-2-10-1-3 2 1-8-2-11-14 1-3 1v-7l-2-6-13 3-3 2v-7l-1-7-16 3-3-11v-3l-16 2-8 14v6l3 9 10-2h4l2-5 5-7 1 2-6 9 1 7 1 6 12-5h2l2 5 2 9-3 1-2-11h-4l-10 3-1 2-2-11-2-3-12 3-9 16 2 11 1 5h-2l-3-13-13 3-3 5-6 12 1 8 2 7 8-1-4 3-5 1-3-8-2-6-16 2-2 6-6 12-2 1-13 1-7-19 1-6 6-14 2-2 17-2 6 19 2 1 13-2 2-6 5-11-1-8-3-11h-6l1-2h6l2-6 5-9-1-11h2l3 7 12-1 3-1 8-14z" fill="#0559CC"/>
<path transform="translate(660,612)" d="m0 0 3 1-1 2h-2zm302-9h4l-1 4v4l1 4-1 1 6 1v2l-6 1v6l2 1h-5v11l16 1v6h-6l-1 3v-3l-32-2-2 3h5l1 3h-6l-1 2h-9l1 4 3-1-3 6 4-2 1 3h-3l1 4h-2l-1 6-2-1 1-8h-2l2-6-3-1-2-4-3-1 3-3-2-2-4 2-2-1v2h-2l-1-3-2 3-5-2-4-2h-1v2l-4 1-6 3-3-1h2l-2-6h5l5-1v-3h-18l-2 1v-2l-20-1-190-15-10-1v-6l19 2h9l1-3h7l1 3-3 1 111 8 25 1 3 1 98 7 31 2 2 1 1-14v-10zm-52 45 2 1-2 3z" fill="#8C97A8"/>
<path transform="translate(582,658)" d="m0 0 2 1 1 5-3 4 1 6-4 4-19 2-56 4-18 2-27 1h-17v-16l6-1 79-5 45-4 9-2z" fill="#051B2A"/>
<path transform="translate(696,550)" d="m0 0h7v2h-2l1 5 2-6 1-1h12l11 1 1 3-21-1 7 1 22 1 4 1v2h-17l-11-1-1 5 12 1v3h2v-3l2-1h-14v-3h14l11 1 1 4 7-1 1-3h7l1 5 3 2v-2l-3-1 1-3h12l18 1 5 1v3h-8v4 4l-2 1v4h9v3h-14l-8-1-1-7h-3l2 7 1 3-1 1-23-1v-3h10l2 1 1-2h-15v3h-16l21 2v3h-2v3h-2v-3h-3l1 3h-3l-1-3-15-1-1 1h-11l-4-1 1 2 7 1-1 2h-10l-2 2v3h-9l-1-3 4-1v-3h3v-2h6v-5l4-1-1-1h-14v-7h11l11 1 1 3 4 2 1-1-4-2v-3l-4-1h-2-7v-3h-2v3l-9-1v-6h2v-8l3-1-3-1zm55 18v1h7v-1z" fill="#727E93"/>
<path transform="translate(583,673)" d="m0 0 1 3-3 3-13 4-61 6-9 4-8 4-5 5-1 6 2 6 2 5-15 7-22 10h-3l-2-9-3-23v-15l18-2 34-3 50-4 28-2 8-2z" fill="#A4AFBD"/>
<path transform="translate(631,357)" d="m0 0h1v20l-2 37 19 1 1 2-8 64-15-1-9-1-1-1v-13l1-4 4-64 1-5 2-2 2-15 1-14z" fill="#05293B"/>
<path transform="translate(684,729)" d="m0 0h17l29 3 3 1 72 8 10 2-3 5-20 18-4 1-13-5-13-3-4-3-9-3-5-4-15-5-11-2-15-8v-2l-14-1-5-1z" fill="#A3AEBC"/>
<path transform="translate(592,443)" d="m0 0 3 1 1 4 1 3-2 1-1 3h3l1-3 4 1-1 9h2l1-4 3-1-1 8v3l4-1-2 7 3 3 2-6 1 3-1 7-1 1-8 1-3 6 10 2v1l-10 2-10-2-1 3-6 1-7-1-2-4h2l-2-4-1-5-12-2-3-10 2-18 4 2 2 7 1-1-1-11 3-2 1 4h5l1 3h2l-1-8 3-2 3 5 2 3h2l2-7h2z" fill="#8F767A"/>
<path transform="translate(1037,706)" d="m0 0h1v8l-2 2h-1l-1 7-3-1-3 6h2l-2 6-4 1-2 3-8-1-4 2-3 5-8 1-16-4-13-1-7-2-4-1-2 1 1-7 4-2 4-6h2l1-6 5 1 4-3h13l11 2 3-2 16-2 10-4h4z" fill="#8B99AA"/>
<path transform="translate(855,125)" d="m0 0h15l8 5 5 8 1 3v13l-4 9-7 6-4 2h-15l-8-5-5-7-1-3v-16l6-10 6-4z" fill="#E1E4E9"/>
<path transform="translate(931,125)" d="m0 0h11l4 1 10 28 4-10 6-17 1-1 14-1 1 1v44l-10 1-1-1-1-27-9 26-1 1h-9l-9-24-1-3-1 27-3 1h-6l-1-1v-44z" fill="#DCE0E6"/>
<path transform="translate(653,125)" d="m0 0h20l9 2 6 4 4 6 1 3v14l-5 10-7 5-9 2h-19z" fill="#DFE3E8"/>
<path transform="translate(492,125)" d="m0 0h11l7 30 8-29 1-1h10l3 7 5 20 1 2 6-28h11l-4 17-7 27-12 1-3-9-5-19-3 8-5 19-2 1h-10l-3-7-9-34z" fill="#DEE2E8"/>
<path transform="translate(499,776)" d="m0 0h29l58 7 97 12 26 4v1h-56l-25-3-34-3-18-3-78-9-9-3v-1z" fill="#8B98AA"/>
<path transform="translate(439,623)" d="m0 0 6 1-2 23-1 40 17-1h13v1l-23 2h-6l2 24 4 28 5 18 4 16 7 21v4h-8l-8-24-6-22-6-31-3-27v-49l2-22z" fill="#0457CB"/>
<path transform="translate(899,642)" d="m0 0 1 2h5v2l4 2 2-4 1 4h2v-2h4l2-2 3 3-3 3h3l2 5 2 1-2 6h2v8l1 1 1-6h2l-1-4h3l-2-2-3 1 2-5h-2l-1-4 9-1 4-1 1-2v2l3-1v3l5-2-1 7h9l4 1v9l-4-1v-2l-6 2 2 4 1 4 3 1h-23l-11-1-6-1-1-3-2-1v3l-3-1 1-2h-5v-2h2l2-6-2 1-1 2-3-2v-2l3-2-5-1-3 1v-2h-2v-2h-3l1 6h1v5h3l-1 3-4 2-1-2h-2v2h-13v-2h-2l-2-5 6-2v-3l3-2-1-2h3l1-3 6-3h2l1-3v2h3l-1-3zm11 6v4l2-4z" fill="#E0D7BA"/>
<path transform="translate(595,125)" d="m0 0h19l9 3 4 5v6l-4 6-2 1 7 6 1 8-3 6-6 4h-26v-44z" fill="#DDE1E7"/>
<path transform="translate(483)" d="m0 0h85l-2 1 3 11 1 2-11 3-5 2h-3l3 16h-2l-3-15-18-7-6 2-10 5 2 15 10 3 6 3-2 1-13-5-6 2-9 6-2-1 12-8h2l-2-16-11-3-9-1-11 7-1 3 2 13 10 3-4 1-7-2h-3l1-1v-7l-1-11 13-8-1-9-3-3-5-1z" fill="#013CC3"/>
<path transform="translate(1163,623)" d="m0 0 2 4 2 25v37l-3 31-4 23-5 22-11 34-1 1h-8l3-10 8-25 6-26 4-25 2-24v-40l-1-14v-10l2-2z" fill="#0456CB"/>
<path transform="translate(779,258)" d="m0 0h42v9l-14 6 12 1v11l-1 12-1 3-14 5-9-1-11-3-1-5v-9h8l2 6 4 1h13l1-11h-29l-1-8 12-6 3-1-15-1z" fill="#DFE3E8"/>
<path transform="translate(183,72)" d="m0 0 5 1 15 7 10 25-1 6-8 14-12-5-8-4-10-25 1-6z" fill="#0138C2"/>
<path transform="translate(1077,486)" d="m0 0 3 1-9 11-6 10-5 14-3 16v12l3 16 6 16 7 11 9 10 11 9 16 8 15 4 7 1h15l10-1-2 5-2 2h-19l-14-3-16-5-22-11-20-5-8-3 1-8v-17l-1-9-2-5v-8l1-8v-7l3-17 4-11 8-16 9-11z" fill="#B9B7C0"/>
<path transform="translate(970,507)" d="m0 0 17 1v13l-2 29h5l4 3v2h-3l1 5-1 4 2 3h2v2h-4l1 5h-2v2l3 1 1 4-6-3-1 2-4-4-1-6 2-1-1-4h-3l-1 4-4 2v-2l-9-2-1-1 1-9h3l-3-2v-9h2l-2-4 1-5v-1l1-21z" fill="#123B60"/>
<path transform="translate(821,753)" d="m0 0 9 1 13 5 11 6 11 8 20 8 18 2 26 2 10-3 2-1h11l6-1 20 1 4 1 15 1 2 2-6 12-4-1 1-7-19-2v2h-19l-11 2-4 3-6 3h-2l-1 3h-27l-1-5 5-5-4-1-13-1 1-2-12-4-9-2-3-1 3 3-6-1-6-4-3-4h3v-2l-4-2-3-3-17-7-5-3-6-2z" fill="#BAB8C0"/>
<path transform="translate(150,79)" d="m0 0 5 1 17 9 10 25-2 6-8 10-4-1-17-9-5-11-4-11 1-8z" fill="#0138C2"/>
<path transform="translate(152,34)" d="m0 0 18 8 2 1 10 26-2 5-8 13-20-10-3-7-6-16 2-10z" fill="#0138C2"/>
<path transform="translate(1026,125)" d="m0 0h11l14 21 5 8v-28l4-1h6l1 3v42l-4 1h-7l-7-10-12-18-1 27h-10z" fill="#DDE1E7"/>
<path transform="translate(183,27)" d="m0 0 5 1 14 6 5 10 5 13v6l-8 15-5-1-16-8-9-24 1-2 2-3-2-1z" fill="#0138C2"/>
<path transform="translate(214,62)" d="m0 0 10 3 9 4 5 12 4 11-1 7-7 14-9-2-10-4-10-25 1-5z" fill="#0138C2"/>
<path transform="translate(119,42)" d="m0 0 5 1 16 8 8 20 1 8-8 10-4 2-19-10-2-6-7-18 2-4z" fill="#0138C2"/>
<path transform="translate(435,507)" d="m0 0h41v8l-1 1h-31l1 7 29 1 1 4-2 21-2 2-11 3h-9l-13-4-1-5v-8l4-1 5 1 1 6 8 2 8-2 2-10h-28l-1-2-1-9z" fill="#E6E5E0"/>
<path transform="translate(117,83)" d="m0 0 6 2 15 8 5 11 5 14-1 4-8 8-4 1-20-11-7-18-1-6 3-5z" fill="#0138C2"/>
<path transform="translate(214,17)" d="m0 0 18 6 2 1 8 23-1 5-7 14-7-1-12-5-3-5-7-19 1-5z" fill="#0138C2"/>
<path transform="translate(445,625)" d="m0 0 25 1-2 2 1 5 3 8 1 7 2 1-5 2-1 14-1 3-4 2-22 1v-24l2-20z" fill="#B0B5BF"/>
<path transform="translate(183,117)" d="m0 0 19 9 2 1 8 21v6l-10 11-5-1-16-8-8-22 1-5 7-9z" fill="#0138C2"/>
<path transform="translate(243,50)" d="m0 0 8 1 10 3 4 8 5 14-1 7-7 15-14-3-5-3-8-22 1-6z" fill="#0138C2"/>
<path transform="translate(659,665)" d="m0 0h16l58 5 52 5 12 3 6 2v2l-4 1 10 1 2 2-38-3-106-10-13-2 1-2-16-2v-1h19z" fill="#072A43"/>
<path transform="translate(214,109)" d="m0 0 8 2 12 4 8 22-1 6-8 13-8-1-11-4-8-21v-6z" fill="#0138C2"/>
<path transform="translate(149,121)" d="m0 0 5 2 16 9 3 5 6 16-1 5-8 8-4 1-19-10-4-8-5-14 2-4 7-7z" fill="#0138C2"/>
<path transform="translate(1e3 575)" d="m0 0v3l-4 4 1 5-1 4 5-2-3 9 8-1v-2l3 1 1 3 5 3v2h4v2l2-1v-3h2v3l2 1-1 4h-3l2 5-2 1-1 6 3-1 1 4-1 3v18l-2-2-5 5-2 1v-2h-2l1-7h-2l2-7 2 2 1-4v-5l-3 1-2 3-6-1-1-4-3-4 5-2v3h3l-1-3h2l1 4-1 3h2l-1-6 1-5v-5l-1 1-3 2 1-4-2 1-2-8-9-1-3 1 1 4-1 2h-2v8l-1 2h-2v-2h-2l-2-6-1 3h-2l-1-3v9h-3l-3-1v-3l-12-1v-1h10l2 1 1-13 2-2 3-7 4-4v-4h-2l1-4h3v3h4l2 5 1-4 1-6 3-3z" fill="#0D3B70"/>
<path transform="translate(87,47)" d="m0 0 10 4 10 5 7 18 2 5-1 4-5 5-3 4-4 1-15-8v-3l-6-3-3-10v-4l-3-3 2-5z" fill="#0138C2"/>
<path transform="translate(454,759)" d="m0 0 19 2 56 8 1 2-18 3-13 3-24 5-3 2-1 16h-6l-10-31z" fill="#061D2E"/>
<path transform="translate(19,206)" d="m0 0 4 1 14 10 1 5-4 15-13 6-9 3-12-9v-23l8-4z" fill="#0138C2"/>
<path transform="translate(32,239)" d="m0 0 4 1 11 7 2 2-1 7-4 12-6 4-14 7-5-1-11-8 1-8 4-14 16-8z" fill="#0138C2"/>
<path transform="translate(244,96)" d="m0 0 11 2 7 2 8 22-4 10-5 9-13-1-5-2-7-20 1-9z" fill="#0138C2"/>
<path transform="translate(114,121)" d="m0 0 15 8 6 4 5 10 4 12-1 3-12 7-10-5-12-7-7-19 1-4 9-7z" fill="#0138C2"/>
<path transform="translate(82,85)" d="m0 0 5 1 16 9 3 5 7 18-2 4-9 7-6-1-17-10-4-10 1-17z" fill="#0138C2"/>
<path transform="translate(123,3)" d="m0 0 18 6 5 10 4 12-1 5-8 12-5-1-16-8-6-16 2-5 1-2-3-1 6-8z" fill="#0138C2"/>
<path transform="translate(150)" d="m0 0h22l3 4 7 20-2 5-8 12-19-8-4-9-5-13 1-4z" fill="#0138C2"/>
<path transform="translate(891,125)" d="m0 0h20l9 3 4 6v11l-4 6-8 4h-10v15l-2 1-9-1z" fill="#DDE1E7"/>
<path transform="translate(726,427)" d="m0 0h57l58 1 2 2-3 4h-3v-2l-4 1-2-1v2l2 1-18 2-6 1h-72l-8-5z" fill="#061B2B"/>
<path transform="translate(937,338)" d="m0 0 17 7 1 1v10l-3 41h-20l4-56z" fill="#061C2B"/>
<path transform="translate(53,51)" d="m0 0 15 6 6 4 8 22-7 7-4 3-4-1 1-1-2-1-1 2-14-7-1-4 1-1-5-3-4-12 1-4z" fill="#0138C2"/>
<path transform="translate(272,79)" d="m0 0 17 3 6 17-1 9-7 14h-15l-4-8-5-14 3-9z" fill="#0138C2"/>
<path transform="translate(57,213)" d="m0 0 6 1 14 9-1 8-5 10-18 7-4-1-11-7-2-2 1-8 3-11 7-3z" fill="#0138C2"/>
<path transform="translate(91,11)" d="m0 0 11 3 8 3 5 12 3 9-1 5-9 11-10-4-9-4 1-4-3-4-3-1-3-11 6-8 4-4z" fill="#0138C2"/>
<path transform="translate(76,120)" d="m0 0 6 1 18 11 7 19-1 3-11 5-5-1-17-10-2-6-3-3-2-9 3-5z" fill="#0138C2"/>
<path transform="translate(47,85)" d="m0 0 6 2 15 8 5 11 3 9-1 4-9 6-4 1-16-9-3-2 1-3v-2l-5-3-2-8 5-6 2-5z" fill="#0138C2"/>
<path transform="translate(301,19)" d="m0 0 16 2 6 17-1 7-7 15h-9l-8-1-7-20 2-7 7-12z" fill="#0138C2"/>
<path transform="translate(59,18)" d="m0 0 11 3 8 3 7 19-1 5-10 10-19-8-4-9-2-7h2l2-7 3-6z" fill="#0138C2"/>
<path transform="translate(270)" d="m0 0h23l6 17-1 5-8 14h-7l-11-3-7-19 1-7z" fill="#0138C2"/>
<path transform="translate(702,518)" d="m0 0h21l1 3-4-1 1 2 31 2h17l1 1h16l14 1v3l-10 1v3h-3l-11-1v-2l10-1-20-1 8 1v3h-15l4 1v2h-20l-1-4v4l-5-1h-8v-3l5-1h-6v4h-9l-17-1v-2l-10 2-2-1 1-3h4l-6-1v-2h5v-4h15v-2h-7z" fill="#0E396E"/>
<path transform="translate(145,158)" d="m0 0 19 9 3 2 6 17v2l-14 6-6-2-16-8-5-16 1-3z" fill="#0138C2"/>
<path transform="translate(299,61)" d="m0 0h8l7 1 4 9 3 8-1 5-8 16-2 1-13 1-7-19 1-6 6-14z" fill="#0138C2"/>
<path transform="translate(40,117)" d="m0 0 5 1 17 9 5 13 2 7-10 4-7 1-10-6-9-5-4-10-1-7 5-4z" fill="#0138C2"/>
<path transform="translate(37,185)" d="m0 0h8l16 10 1 1-1 13-3 3-14 4h-6l-15-11 1-14 2-1 1-3z" fill="#0138C2"/>
<path transform="translate(19,55)" d="m0 0 5 1 16 7 6 17-1 5-9 7-3 1-19-9-4-9-1-5 4-4 4-8z" fill="#0138C2"/>
<path transform="translate(730,125)" d="m0 0h11l3 8 7 24 6-18 4-13 1-1h10l-1 6-13 38-3 2h-9l-3-5-13-38z" fill="#DEE1E7"/>
<path transform="translate(701,125)" d="m0 0h25v9h-15v10h14l1 1v7l-4 1h-11v9h17v8h-28v-44z" fill="#DEE2E8"/>
<path transform="translate(567,125)" d="m0 0h19l1 8-1 1h-15v10h15v8l-4 1h-11v9h17v8h-28v-44z" fill="#DFE2E8"/>
<path transform="translate(881,430)" d="m0 0h67l45 1-2 10-4-1-16-1-29 1-14-1-34-1-9-1-2-1z" fill="#061B29"/>
<path transform="translate(697,438)" d="m0 0h9l8 1v1l-8 1-1 4 25 1v1l-10 1h-18l7 1h12l23 1v-2h-7l-2-2 4-1 35 2v1h-28v3l16-1 6 1h13l14 1 4 2-22 1-1 2h-48l44 3-8 4-5 1v-2h-10l-1-3h-30v2h6v1h-15v-1h7v-2l-16-1v-1l10-1h16l-1-1h-26l-7-1 3-6 3-1-8-1-1 2-1-3 5-1 6 1-3-4h3z" fill="#0A2135"/>
<path transform="translate(778,125)" d="m0 0h25l1 1v8h-16v10h14v8l-6 1h-8v9h16v8h-27v-44z" fill="#DBDFE5"/>
<path transform="translate(693,488)" d="m0 0h12l17 3v3h2l-1-3 9-1 7 1 4 1v2l6 1v3l-4 1-2 5-2 2h-14l9 1v3l-41-2-4-2v-2h3v-2l-4-1v-1h5v-10l-3-1z" fill="#182E4B"/>
<path transform="translate(849,637)" d="m0 0v3l-3 1v3l5 1 1 3 4 2v2l4-1v-3h-2l-1-5 5-1 1-3 5 1 5 2-1 7-3 1v3l-5 1 3 2 4 1-1 4 7-2 1-3h3l-1-4-4 2v-3h-2l1-4 1-3 3-1 1 7 6-2 1 3-3 3v3l-2 1-2 4-4 1 1 4 2 1-5 1-13-2v1h-5l-4-2-8-1-2-4-1 1v2l-4-2-5-5 1-2 5 3-1-4h2l-1-8 5-8h5zm16 20 1 2z" fill="#103C65"/>
<path transform="translate(108,154)" d="m0 0 15 8 8 6 4 12-1 5-9 3h-7l-19-10-3-10v-5-3z" fill="#0138C2"/>
<path transform="translate(451,750)" d="m0 0 14 1 78 10 6 2-2 5-4 1-14 1-47-7-29-4z" fill="#A3ADBB"/>
<path transform="translate(992,125)" d="m0 0h26v9h-16v10h15v8l-7 1h-8l1 8 16 1v8h-27z" fill="#E0E3E9"/>
<path transform="translate(12,85)" d="m0 0 6 2 15 8 4 10 3 10-12 6h-5l-15-8-1-9-1-3-5-1-1-1v-6l6-4 4-1z" fill="#0138C2"/>
<path transform="translate(175)" d="m0 0h32l4 9 2 5-1 4-8 14-5-1-15-6-8-21z" fill="#0138C2"/>
<path transform="translate(328,4)" d="m0 0 17 1 4 13v6l-8 15-7 1h-9l-4-10-2-6 1-7 7-12z" fill="#0138C2"/>
<path transform="translate(334,41)" d="m0 0h6l5 14-1 7-7 15-13 3-3-2-5-15 1-6 7-15z" fill="#0138C2"/>
<path transform="translate(79,194)" d="m0 0h6l16 10v8l-2 6-17 4h-5l-14-10 1-16z" fill="#0138C2"/>
<path transform="translate(68,149)" d="m0 0 5 1 15 8 5 5 4 12v3l-14 2-5-1-14-8-1-3-3 1-4-11v-4z" fill="#0138C2"/>
<path transform="translate(979,564)" d="m0 0 4 1v3l2 1-2 2 2 6 2 3-2 3h-3l-1 19-1 11-1 2h-6l6 1-1 3h-1l-5 4-4 1v2h-3l-1-6 1-1h6v-2h-9l3-2v-4l-2-1h3v-2l-2-1v-2h3v-4h-2v-8l1-2h2v-6l-2-1 1-1v-5l-1-2 2-6h2l2-2 4 2 3-2z" fill="#05293E"/>
<path transform="translate(757,561)" d="m0 0h12l18 1 5 1v3h-8v4 4l-2 1v4h9v3h-14l-8-1-1-7h-3l2 7 1 3-1 1-23-1v-3h10l2 1 1-2h-13v-4l-3 1v3h-2v-4h-15l-5-1v-1l5-1-2-3h6l-1 4 14 1v-3h-11v-1l9-1-2-3 4-1 7 1v2h-6l-1 2 5-1 1 1 13 1-2-4 1-3-3-1z" fill="#2E4060"/>
<path transform="translate(91)" d="m0 0h59l-4 7-1 4 8 21 19 8 5-6 1 2-2 3 1 3-2 3 9 24 20 9 2-6 4-3-2 6-2 4 1 5 1 6-3-3-2-7-9-3-8-4h-3l-2 3h-2l2-7-9-23v-3l-6-2-14-6h-2l-7-21-2-4-18-6-8 7-4 4-9-2-5-2v-2l-1-2h-2l-1-2-2 1-1-5z" fill="#0458CB"/>
<path transform="translate(26,25)" d="m0 0 7 1 12 4 5 12 2 8-10 10-3 1-8-4 2-2-7-2-4 1-2-1-1-7 3-11 3-3 1-4-2-1z" fill="#0138C2"/>
<path transform="translate(621,665)" d="m0 0h9l26 3-1 2 12 2 14 2 4 1v2l25 2 63 6 4 2h-19l-5 2v-3l-21-1v2l-2-1 1-3h-19l-5 2 1-4h-19l-5 2 2-4h-22l-1-1-18-1-8 4-9 4v4l-4-1h2v-3l-3-1 7-4-3-3-3-7z" fill="#8C93A3"/>
<path transform="translate(949,519)" d="m0 0h6l4 4-4 10 1 4 1 2h-8v7l2 4-1 5-2 2h-8l-3-4 3-1 1-3 3-3 1-2-5-1v-3h-2l-1 4-13-1 1-3 2-1-2-2v-5l6-9 5-3z" fill="#0B3452"/>
<path transform="translate(977,445)" d="m0 0h14v16l-3 46-1 1h-13v-3l9-1 1-11-2-3-7-2-1-2 2-1v-3l-3-1h3l-2-6h2v-2l-3-1 2-1 1-4-2-1 5-5-3-1 2-5h-3l1-5 1-1z" fill="#052A41"/>
<path transform="translate(362,21)" d="m0 0h4l4 11v6l-9 15-6 3h-9l-4-12v-6l9-16z" fill="#0138C2"/>
<path transform="translate(30,142)" d="m0 0 5 1 16 9 3 3 4 14-7 1h-11l-14-7-3-7-5-3-2-6 7-3z" fill="#0138C2"/>
<path transform="translate(1072,125)" d="m0 0h36v9l-12 1-1 35h-10v-36h-13z" fill="#DFE2E8"/>
<path transform="translate(547,762)" d="m0 0 26 3 38 5 5 3v2h2v3l-21 1-61-8-1-2 10-1 2-1v-4z" fill="#B0B5BF"/>
<path transform="translate(2,113)" d="m0 0 6 1 15 8 3 3 4 12v4l-11 3h-6l-13-7v-23z" fill="#0138C2"/>
<path transform="translate(33)" d="m0 0h20l5 15-2 4-9 9-9-2-3-1-3-6-6-1-2-9 5-2z" fill="#0138C2"/>
<path transform="translate(836,635)" d="m0 0h9l25 2 7 2 1-1 18 1v3l-5 2-4 1 1 4h-7l-1 2-2-5v-2h-2l-1 4-1 3h2l1-2v3h3l1 4h-3l-1 4-7 1v-4h-4v-2l-3-1 1-1h5v-3l3-3-2-1h3l-2-3-1-2-7-1v3h-5v5h2v3l-6 1v-3l-4-2-1-2h-4l1-4 2-2h-5l-4 7v8h-2l1 4-4-1h-3l-1-4-2-1-1-9 5 3 4-1v-4h2v-4z" fill="#072135"/>
<path transform="translate(620,439)" d="m0 0h1l1 15 1 6h2v-2l2-1h10l7-8h1l-1 16-2 16-15-1-9-1-1-1v-13l1-4 1-19z" fill="#061C2C"/>
<path transform="translate(428,22)" d="m0 0 2 1 2 6-1 9-8 11 1 15h16l2-4v3l-1 2 1 17 4 2-6 1-2-19h-15l-2-11v-4l-14 1-3-13 13-14z" fill="#0139C2"/>
<path transform="translate(812,125)" d="m0 0h10v37h16v8h-27v-44z" fill="#DCE0E6"/>
<path transform="translate(96,179)" d="m0 0 5 1 19 10 2 10-1 1-17 2-8-3-12-7-2-11z" fill="#0138C2"/>
<path transform="translate(51,171)" d="m0 0h10l19 10 2 6v5l-10 2-8 1-13-7 2-2-8-4-3-9v-1z" fill="#0138C2"/>
<path transform="translate(940,647)" d="m0 0 1 2 3-1v3l5-2-1 7h9l4 1v9l-4-1v-2l-6 2 2 4 1 4 3 1h-23l-11-1v-1h5l1-7h2l-1-4h3l-2-2-3 1 2-5h-2l-1-4 9-1 4-1z" fill="#D8CEB7"/>
<path transform="translate(585,456)" d="m0 0 5 1 2 8h3l1 3 5-1 2 1v5h2v6l-9 2h-15l-13-1-1-2v-12h3l3-9 3 2-1 9 3-5h2l3 5 1-10z" fill="#052B44"/>
<path transform="translate(503,688)" d="m0 0 4 1-9 4-8 4-5 5-1 6 2 6 2 5-15 7-3 1-3-4-3-8-1-3 3-2 2-7 3-5 10-5 9-3z" fill="#B0B6C0"/>
<path transform="translate(489,778)" d="m0 0h12l39 4 39 5 30 4 65 8v1h-21l-25-3-34-3-18-3-78-9-9-3z" fill="#A9B1BD"/>
<path transform="translate(0,176)" d="m0 0 5 1 14 8 3 3v9l-1 7-18 7h-3z" fill="#0138C2"/>
<path transform="translate(57)" d="m0 0h30l3 7-1 5-10 10-6-1-12-4-4-9-1-7z" fill="#0138C2"/>
<path transform="translate(3,7)" d="m0 0h12l7 3 4 14-13 10-11-3-2-1v-22z" fill="#0138C2"/>
<path transform="translate(1e3 575)" d="m0 0v3l-4 4 1 5-1 4 5-2-2 4h-2l-1 5-3 2 1 7-1 2h-2v8l-1 2h-2v-2h-2l-2-6-1 3h-2l-1-3v9h-3l-3-1v-3l-12-1v-1h10l2 1 1-13 2-2 3-7 4-4v-4h-2l1-4h3v3h4l2 5 1-4 1-6 3-3z" fill="#083766"/>
<path transform="translate(967,658)" d="m0 0h2l1 5 3-1v2l5 1 4 1v3h5v2l4-2 8 5v2h2l1-4 5-1 2 8h-7-3l-11-1v-2h-2v2l-38-3v-1l6-1-5-10h2v2l6-2v2l4 1 1-4v4l1-2h2l1-5z" fill="#ACACB6"/>
<path transform="translate(15,161)" d="m0 0 7 1 16 8 3 3 1 10-11 2h-5l-1-5-4-1-12-6-5-2-1-8z" fill="#0138C2"/>
<path transform="translate(668,731)" d="m0 0 8 4 5 6 7 9 8 5 12 3 3 3 9 2 2 2 14 2 4 4v2l4 2 1 2-16-2-23-3 1-7h-2l-4-4-8-3-7-5-8-4-6-11-5-4-2-2z" fill="#BAB8C0"/>
<path transform="translate(495)" d="m0 0h32l2 11-15 8-10-3-9-3-2-7v-4h2z" fill="#0138C2"/>
<path transform="translate(209)" d="m0 0h33l1 7-9 15-18-6-3-5z" fill="#0138C2"/>
<path transform="translate(858,134)" d="m0 0h8l5 4 2 6v9l-3 6-4 3h-7l-5-3-3-6v-11l4-6z" fill="#013AC2"/>
<path transform="translate(1021,573)" d="m0 0 4 1v2l4-3 2 1-1 13v18h-2v-3l-2 4h-2v-2h-6l-1-3-3-2-1-3-8 1v-3l2-4h5v-2l4-2-1-1-1 2h-2l1-4 1-2h2v-2h2l1-3h2z" fill="#D8DDE4"/>
<path transform="translate(515,604)" d="m0 0 12 3v2l12 2 59 20 2 1v2l9 1 3 1 11 1v7l-11-2-20-7-53-19-26-9v-2z" fill="#0A264A"/>
<path transform="translate(348)" d="m0 0h28l-1 6-8 13-3 1-13 1-5-15 1-5z" fill="#0138C2"/>
<path transform="translate(718,460)" d="m0 0h30l1 2 10 1v2l5-1 5 1v2h-23l8 1-2 3h-8l-7-1h-9v-2l7-1-1-2-1 1h-6l-1 3-2 1h-16l-2-1h-7v-2l2-1-9-1v-2l26-1z" fill="#6F7484"/>
<path transform="translate(442,647)" d="m0 0h1l1 5 24-1-1 16-3 3-22 1z" fill="#8C99AB"/>
<path transform="translate(295)" d="m0 0h31l1 3-9 16h-10l-7-1-5-12z" fill="#0138C2"/>
<path transform="translate(508,776)" d="m0 0h20l58 7 97 12 26 4v1h-14l-24-3-35-4-37-5-21-3-44-5-26-3z" fill="#8E7174"/>
<path transform="translate(1017,641)" d="m0 0 1 4-1 3h4l6-6-1 7-3 5-1 2 4-1-1 3-2 1 1 3 2 1-2 6-2-1v-3l-4-1-3 4 2 3-2 3-1 5h-5v-2l-2-1-1-4-4 1 1-7-1 1-2-1v-3l5-2 1-4 5-7h4l1-6h-2l-1 4v-5z" fill="#CFD5DD"/>
<path transform="translate(1065,582)" d="m0 0 4 5 8 11 8 8 13 9 11 5 15 4 7 1h15l10-1-2 5-2 2h-19l-14-3-16-5-22-11v-2h-2l-4-6-4-9-6-9z" fill="#B9B7C0"/>
<path transform="translate(693,574)" d="m0 0h11l11 1 1 3 4 2 6-2 8 1v1h-8v3l21 2v3h-2v3h-2v-3h-3l1 3h-3l-1-3-15-1-1 1h-11l-4-1 1 2 7 1-1 2h-10l-2 2v3h-9l-1-3 4-1v-3h3v-2h6v-5l4-1-1-1h-14z" fill="#324554"/>
<path transform="translate(1146,508)" d="m0 0h11l1 1v5l-10 1v13l8 1 1 1v24l-10 3h-6v-6l7-3 4-1 1-12-11 1-1-1v-24l1-2z" fill="#FFFFF9"/>
<path transform="translate(609,467)" d="m0 0 1 2-2 5 3 3 2-6 1 3-1 7-1 1-8 1-3 6 10 2v1l-10 2-10-2-1 3-6 1-7-1-2-4h2l-2-4-1-5-5-1v-1h36v-11z" fill="#AFB5C0"/>
<path transform="translate(702,518)" d="m0 0h21l1 3-4-1 1 3-1 2h12l7 1-4 2-1 2h-6v4h-9l-17-1v-2l-10 2-2-1 1-3h4l-6-1v-2h5v-4h15v-2h-7z" fill="#09284C"/>
<path transform="translate(664,134)" d="m0 0h8l6 3 3 3 1 3v9l-3 6-4 3-3 1h-8z" fill="#013AC2"/>
<path transform="translate(583,673)" d="m0 0 1 3-3 3-25 3-38 3-52 7-12 3-10 1-1-1v-6l18-2 34-3 50-4 28-2 8-2z" fill="#8C92A1"/>
<path transform="translate(732,61)" d="m0 0h5v30h-5-3-8l-4-5v-10l4-5 2-1h6l3 2z" fill="#DFE2E8"/>
<path transform="translate(924,439)" d="m0 0h29l3 2 2 1v2l3 2v2h-5-2-8v-2l-6 2-9-1h-2-12l-2-1-8 1-9-1 1-4-2-1 2-1z" fill="#1F3958"/>
<path transform="translate(997,647)" d="m0 0 3 3-2 1v2l3-1 4 7v2l-5 2 1 3 4-3-2 7-2 6h-2l-1-2-8-4-3 1v-2h-5l-1-2-5-2-6-2v-2l-2-1 1-2-5 1-2-8 5 1v-2l2 1-1 2 6 1v2l3 1v2l7-4-2 4-3 1 2 3 3 3-1 2 5-2 2 1-1-7-1-2 6-4z" fill="#0E4187"/>
<path transform="translate(956,453)" d="m0 0h5l4 5h6l-1 4 1 4-1 2-6 1h-6l-3 1h-10v-3l-7 2-3-4 1-3 5-1v-2h-8v-3l7-2h3v2l-4 1h6 2 6l1 3z" fill="#1C344C"/>
<path transform="translate(0,32)" d="m0 0 12 3 4 9 2 6-1 5-10 8-7-2z" fill="#0138C2"/>
<path transform="translate(451,750)" d="m0 0 14 1 24 3 7 3 4 5-1 3-26-3-20-3z" fill="#8E7579"/>
<path transform="translate(617,572)" d="m0 0h13l-1 4-41 3-56 5 1-4 1-2 70-5z" fill="#0F2847"/>
<path transform="translate(1146,485)" d="m0 0h11l10 2 3 3v3h-64l4-3 9-3 6-1z" fill="#FFFFF9"/>
<path transform="translate(962,603)" d="m0 0h4l-1 4v4l1 4-1 1 6 1v2l-6 1v6l2 1h-5v11l16 1v6h-6l-1 3v-3l-30-2-1-1-12-1v-4h30l2 1 1-14v-10z" fill="#A0A9B7"/>
<path transform="translate(871,722)" d="m0 0 5 1-1 3-3 2v2l7 1h15l2-1 1-5 5 1-3 5v2l4 2-5 5-1 3 2 1-40-4v-1l7-2 4-3v-3l-3-2 4-4z" fill="#9DA0AC"/>
<path transform="translate(580,669)" d="m0 0 3 3-2 5-8 2-69 5-18 2-27 1h-17v-11h1v9h8l2-1h11l7-1 18-1 12-1 25-2 16-1 4-1h8l22-3 3-1z" fill="#123471"/>
<path transform="translate(696,550)" d="m0 0h7v2h-2l1 5 2-6 1-1h12l11 1 1 3-21-1 7 1 22 1 4 1v2h-17l-11-1-1 5 12 1v3l-4 1v2l-7 1-4-2-5 1 1-3-10-2v-6l3-1-3-1z" fill="#69799D"/>
<path transform="translate(939,642)" d="m0 0 28 2v1h-7l1 4 4-2h5l2 4 7 1v-2h5v5l-5 4h-2l-3-3v-2l-6-1-1-1-4 1 1 4v2h2l-2 7h-2l-2-7 1-2-13-1v-6l-4 1v-3h-2v-2l-7 2 1-3h2zm20 8m26-2 1 2-2-1z" fill="#0D3257"/>
<path transform="translate(830,612)" d="m0 0h22l9 1 1 3-3 5h-8v5h5l1 3-15-1v-3h-2v2h-12v-6l1-1h13l-10-1-2-1v-2h14l-14-2z" fill="#6A7991"/>
<path transform="translate(923,70)" d="m0 0h7l5 3 2 4v7l-4 6-2 1h-10l-4-4-1-2v-9l5-5z" fill="#DBDFE5"/>
<path transform="translate(764,70)" d="m0 0 4 1h2l7-1 4 2 3-2 7 1 2 2 1 4v14h-5l-1-13-1-3h-5l-1 16h-5l-1-14-1-2-4 1-1 1-1 14h-5v-20z" fill="#DDE0E6"/>
<path transform="translate(895,644)" d="m0 0 1 2 6 1-2 1 2 5-1 4-1-2h-2v-2h-3l1 6h1v5h3l-1 3-4 2-1-2h-2v2h-13v-2h-2l-2-5 6-2v-3l3-2-1-2h3l1-3 6-3h2z" fill="#DCE0E6"/>
<path transform="translate(835,549)" d="m0 0h13l22 1 1 3h-11l1 3 6 2 1 4-34-2v-10z" fill="#144BAA"/>
<path transform="translate(435,507)" d="m0 0h41v8h-33l1 9 6 1v1h-7l-2-4h-2v-11l-3-2-1 4z" fill="#FCFAF0"/>
<path transform="translate(987,607)" d="m0 0 2 1zm-1 1m-1 1h1v5h2l-1-3h3l3 12 1 8h-3l1-3h-3v2h-2l-1-3v-2h-4l1 5h-4l-4 4h-7l-2-4h-2l1 4-1 4h-2v-11l5-1 7-7 1-2 8 2 1-1v-7z" fill="#05315A"/>
<path transform="translate(1e3 601)" d="m0 0 7 1 3 3 2 5 3-3-2 6 2-3 2 1v9l-1 2v5h-2v-7l-1 3h-3v-3l-3 1-2-6-5 3-1-5h-2l1 4-4 7h2v3h-2v3h-2l-2-13h2l1-1h1l1-7h2v-6z" fill="#ABB9CE"/>
<path transform="translate(1129,515)" d="m0 0 4 2 1 7 1 18v16l-10-2-9-3 1-8h4l1 4h5l1-24z" fill="#FFFFF9"/>
<path transform="translate(376)" d="m0 0h18l3 11v4l15-4 4-3-1 3v8l1 3 15-1 3 10 1 1 16-1 1 18h7l10 2 3 20-2 1-2-14-1-4-5-2-10-1-3 2 1-8-2-11-14 1-3 1v-7l-2-6-13 3-3 2v-7l-1-7-16 3-3-11v-3l-16 2-7 12-2-1 7-12z" fill="#0559CC"/>
<path transform="translate(998,613)" d="m0 0h2v2l2 1 1 3-4 2-1 10h2v-6h2v3l1-3 4 2-4 6-3-1v5l-1 5v3l-4 1-3-1-2 1-5-6v-1l-4-1 2-2-1-6 1-2-2-1 1-2 4-1 2 3-1 3h2v-2h3l1 3 2-4h2v-3h-2l2-6z" fill="#13335A"/>
<path transform="translate(584,767)" d="m0 0 12 1 15 2 5 3v2h2v3l-21 1-23-3v-2l9-1-2-2 2-1z" fill="#B9B7BF"/>
<path transform="translate(651,542)" d="m0 0 3 1 5 7v16l-3 9-2 1-8-8 1-17 3-8z" fill="#7F90A8"/>
<path transform="translate(91)" d="m0 0h31l-2 5-7 8-4 2-9-3-3-2-1-1v-2h-2l-1-2-2 1-1-5z" fill="#0138C2"/>
<path transform="translate(659,665)" d="m0 0h16l18 2 2 2v4l4 2h-12l-29-3-4-2 1-1-16-2v-1h19z" fill="#162F4C"/>
<path transform="translate(438,536)" d="m0 0 8 1 1 6 8 2 10-1 1-3 2 2-1 5-4 5-3 1h-9l-13-4-1-5v-8z" fill="#F9F8F0"/>
<path transform="translate(631,357)" d="m0 0h1v20l-2 33-5 5h-2l-1-2v-16l1-5 2-2 2-15 1-14z" fill="#19304E"/>
<path transform="translate(621,665)" d="m0 0 10 2 13 5 16 3 21 2v1l-17 1-1-1-18-1-8 4-9 4v4l-4-1h2v-3l-3-1 7-4-3-3-3-7z" fill="#A1ABB9"/>
<path transform="translate(657,687)" d="m0 0 3 1-6 4v3l-4 1-2 4-3 2-1 2h-10l4 2 4 1v-2l8-2v2h-3v2l-5 2-1 1 3 2-9 3h-8v-3l4-1-5 1-5 2-17-2-1-2 19 1 7-4h2v-2h-7v-2l7-1-1-2 1-2h10l7-2 4-6z" fill="#243B5F"/>
<path transform="translate(691,426)" d="m0 0 4 1 20 1v1h-8v3h-17l-1 2 15 1v3l-6 1 1 5v2h-12v-2l-3 1-1 4h-2v-12l-2-2 8-3z" fill="#384B5F"/>
<path transform="translate(697,498)" d="m0 0h22l12 1-1 2-11 1 17 1 4 1v2h-13l9 1v3l-40-2v-2l10-1-9-1v-2l13-1-13-1z" fill="#D9DCE2"/>
<path transform="translate(456,769)" d="m0 0 4 4 1 2 11 1 14-3v2l-8 3 1 3-7 3-1 16h-6l-9-28z" fill="#062037"/>
<path transform="translate(483,648)" d="m0 0h12v11l-3 7 6 1v1l-26 1v-1h6l1-8 4-10-2-1z" fill="#A2ACBA"/>
<path transform="translate(105,181)" d="m0 0 5 2 8 4h7l9-3 1-3h2v3l5 2 2 2-5-1-3-1-13 4v4 7l6 2 10 5 18-1-4 2-10 2-3 13h-2l1-8 1-5-16-8-20 1-2 15 5 2 3 3-6-2-4-2-18 3 3-3 14-3 1-5v-8l-15-9 2-1 13 7 7 1 14-2-2-10-14-7z" fill="#0559CC"/>
<path transform="translate(846,693)" d="m0 0h11l87 8 38 4v2l-5 1-1-1-21-2-3 3h-2v-4h-14v-2l-7 1-2 2h-3v-4h-13l-10-1v2h-2v-3h-11l-9-1-3 2-3-1 1-2-21-1-4 2v-3z" fill="#8C8E9B"/>
<path transform="translate(692,426)" d="m0 0h35l1 8-1 1h-13v3h-10v-3h-13l-2-1 1-3h11l6 1v-3l-12-1z" fill="#1B3250"/>
<path transform="translate(445,625)" d="m0 0h6v7l4 8 1 9 12 1v1l-25 2v-18z" fill="#A4AFBD"/>
<path transform="translate(0,139)" d="m0 0 14 7 4 11v2l-9 2h-9z" fill="#0138C2"/>
<path transform="translate(910,640)" d="m0 0 10 1h20l-2 4-1 1h5l1 3h-6l-1 2h-9l1 4 3-1-3 6 4-2 1 3h-3l1 4h-2l-1 6-2-1 1-8h-2l2-6-3-1-2-4-3-1 3-3-2-2-4 2-1-4h-3v-2z" fill="#8C7275"/>
<path transform="translate(628,698)" d="m0 0h3l1 4-1 1h-7v2h7v2l-9 5-15-1-5-1-2 1-16-1-4-2h20l8-4-12-2-1-2 27 2 6-2z" fill="#C9D0DB"/>
<path transform="translate(747,70)" d="m0 0h6l5 5v16h-15l-2-2v-8l5-3 6-1v-2h-6l-3 1v-4z" fill="#DCE0E6"/>
<path transform="translate(804,70)" d="m0 0h6l5 4 1 8-13 2 1 2h11l-1 4-2 1h-10l-4-4-1-9 3-5z" fill="#D8DDE3"/>
<path transform="translate(1159,563)" d="m0 0h2l1 5-3 5-7 4-9 1-5-3-6-2-6-5 1-2 7 2h7z" fill="#FFFFF9"/>
<path transform="translate(863,70)" d="m0 0h6l4 4v17h-5-2-7l-3-3v-6l5-4h7l-1-3-9 1 1-5z" fill="#DCE0E6"/>
<path transform="translate(1009,620)" d="m0 0h2v3h3l-1-3h2l1 4-1 3h2l-1-6 3-1v2h2v2h-2v2l4-2h3l3-1-1 5v18l-2-2-5 5-2 1v-2h-2l1-7h-2l2-7 2 2 1-4v-5l-3 1-2 3-6-1-1-4-3-4z" fill="#083465"/>
<path transform="translate(585,456)" d="m0 0 5 1 2 8h3l1 3 5-1 2 1v5h2v6l-2 1h-7v-3l-2-6 1-2-6 2-1-9h-2l1 8-1 8-4-2-3-8-2-1-2 6h-2l-1-4 2-4 1 3 3-5h2l3 5 1-10z" fill="#1D3149"/>
<path transform="translate(861,583)" d="m0 0h2l-1 4 2 1-1 4-2 4 3 1v2l-5 1-2-2-1 1h-7v-4l2-1h-10l-9-1v-7l19 1 2 1v3h2v-3l4-1z" fill="#184795"/>
<path transform="translate(540,528)" d="m0 0 3 1 1 3 11 4 1 3 6 4 1 4-3 2h-7l-1 3h-3l1-5-9-3z" fill="#9B99A3"/>
<path transform="translate(483)" d="m0 0h12v2h-2l2 11 12 3 7 2 14-7-1-11 2 1 2 11-16 8 2 15 10 3 6 3-2 1-13-5-6 2-9 6-2-1 12-8h2l-2-16-11-3-9-1-11 7-1 3 2 13 10 3-4 1-7-2h-3l1-1v-7l-1-11 13-8-1-9-3-3-5-1z" fill="#0559CC"/>
<path transform="translate(967,658)" d="m0 0h2l1 5 3-1v2l5 1 4 1-1 3h-4l3 1v2h-7l-3-1v-2l4-1-5-1v2l-2 1v3l-5 1 5 1v1l-19-1v-1l6-1-5-10h2v2l6-2v2l4 1 1-4v4l1-2h2l1-5z" fill="#B1AAAA"/>
<path transform="translate(0,240)" d="m0 0 5 2 6 5-1 8-4 14-4 3h-2z" fill="#0138C2"/>
<path transform="translate(698,490)" d="m0 0h19l5 1v3h2l-1-3 9-1 7 1 4 1v2l2 1v2l-2 1h-20l-4-1-1-2v2l-21-1v-2l10-1-10-1z" fill="#C0C1C9"/>
<path transform="translate(714,559)" d="m0 0h14l11 1 1 4 7-1 1-3h7l1 5 4 5v2h-13l-2-1h-4l1-3 6 1v-2l-22-1v-3l2-1h-14z" fill="#DCDFE4"/>
<path transform="translate(671,70)" d="m0 0h5l1 16h5l1-1 1-15h5v21h-5-2-8l-3-4z" fill="#DEE2E8"/>
<path transform="translate(695,70)" d="m0 0h5v2l3-2h6l4 5v16h-5l-1-15-4-1-2 1-1 15h-5z" fill="#E0E3E9"/>
<path transform="translate(819,634)" d="m0 0h14l7 2-2 1v4h-2v4l-5 2v-2l-3-1-1 4 2 1-2 2-4-1-1-3h-2l-1-7h-2z" fill="#082134"/>
<path transform="translate(820,70)" d="m0 0 5 1h2l1-1 7 1 3 4v16h-5l-1-15-5-1-1 1-1 15h-5z" fill="#E0E3E9"/>
<path transform="translate(652,62)" d="m0 0h15v4l-10 1v8h9v4h-9v12h-5z" fill="#E1E4EA"/>
<path transform="translate(678,426)" d="m0 0h13l-4 7-6 2 1 2-1 10-2 4 1 10-1 5h-3l-1 6h-1v-11z" fill="#071D2B"/>
<path transform="translate(749,728)" d="m0 0h10l28 3v2h-13l-9-1-4 2-1 2-16-1-11-1 2-5h14z" fill="#BCBBC3"/>
<path transform="translate(652,519)" d="m0 0 4 2v-2h3l2 3-1 5h-2l1 3 4-1 1 4-2 2h-4v5l-4 1-1 2h-2l-2 2v-2h-2l-1-3 3-4 1-6h1v-7z" fill="#103A67"/>
<path transform="translate(490,755)" d="m0 0 15 1 17 3 2 2h-2v3l-3 2-11 1-9-2-1-5-3-3-5-1z" fill="#8C99AB"/>
<path transform="translate(970,487)" d="m0 0 12 2 3 4-1 9-3 3-11-1z" fill="#103B67"/>
<path transform="translate(850,516)" d="m0 0h2v3l21 2 1 3-9 1 1 3h-6v-4l-2 1-1 3-19-1v-3-4h12z" fill="#9DB3D2"/>
<path transform="translate(836,635)" d="m0 0h9l11 1-3 8-7-2 2-3h-5l-4 7v8h-2l1 4-4-1h-3l-1-4-2-1-1-9 5 3 4-1v-4h2v-4z" fill="#133C6A"/>
<path transform="translate(683,678)" d="m0 0h18l72 7 4 2h-19l-5 2v-3l-21-1v2l-2-1 1-3h-19l-5 2 1-4h-19l-5 2 2-4z" fill="#9FA6B5"/>
<path transform="translate(834,561)" d="m0 0 17 1 3 7 2 2v3l-23-2 1-4z" fill="#355D9C"/>
<path transform="translate(656,511)" d="m0 0 4 1-2 4 2-1v2l3-1 3-3 1 4-1 15-3 8-3 3v4l-4-2-2-4 4-1-1-3 1-2 5-2v-4h-3l-1 2-1-4 2-1-1-7h-3v2h-2l-2-4v-4z" fill="#134C9E"/>
<path transform="translate(849,637)" d="m0 0v3l-3 1-1 4 3 1-4 1 1 7h2v7h2l-1 4-5-1-1-3-1 1v2l-4-2-5-5 1-2 5 3-1-4h2l-1-8 5-8h5z" fill="#2B68C2"/>
<path transform="translate(585,482)" d="m0 0h10l2 3-1 5-5 2-1 3-6 1-7-1-2-4h2l-2-4 1-4 2 4h4l1-4z" fill="#AFB5BF"/>
<path transform="translate(970,507)" d="m0 0 17 1v13l-1 14-2-1v-17h-16z" fill="#073055"/>
<path transform="translate(0,63)" d="m0 0 6 3 5 16-1 3-10 6z" fill="#0138C2"/>
<path transform="translate(945,61)" d="m0 0h7v4h-5l-1 5h5v4h-4v17h-5v-17h-4l1-4h3v-6z" fill="#E0E3E9"/>
<path transform="translate(735,462)" d="m0 0h14l10 1v2l5-1 5 1v2h-23l8 1-2 3h-8l-7-1h-9v-2l7-1z" fill="#354463"/>
<path transform="translate(895,653)" d="m0 0h3v2l3 1 6-1 2 2-4 2 3 3v-2h3v2l2 1-3 1-1 2 1 1 2 1v2l2 2-6-1h-7v-2l-4 1-1-2 4-4h-3l-2-6z" fill="#1F3F6A"/>
<path transform="translate(689,526)" d="m0 0h14l1 2-2 1h4l-1-3 28 1v2l-13 1 2 4-20-1v-2l-10 2-2-1 1-3h4l-6-1z" fill="#ADB1BE"/>
<path transform="translate(939,642)" d="m0 0 28 2v1h-7l-1 7h-3l-1 4h-7v-6l-4 1v-3h-2v-2l-7 2 1-3h2z" fill="#063681"/>
<path transform="translate(693,574)" d="m0 0h11l11 1 1 3 3 1v3h-7v4l-8-1 1-3h3l-1-1h-14z" fill="#7B8496"/>
<path transform="translate(762,570)" d="m0 0h8l1 2 1-2 11 1 1 3-2 1v4h9v3h-14l-8-1-1-7-6-2z" fill="#AFB2BD"/>
<path transform="translate(894,70)" d="m0 0 7 1v4l-8-1 2 4 6 3 1 1v6l-4 3h-10l-1-5 10 1-1-3-7-3-1-2v-6z" fill="#D9DDE4"/>
<path transform="translate(878,61)" d="m0 0h6v30h-5l-1-1z" fill="#CAD0D9"/>
<path transform="translate(574,679)" d="m0 0 4 1-10 3-51 5h-14l1-2 26-3 35-3z" fill="#A6B0BD"/>
<path transform="translate(0,137)" d="m0 0 14 6 13-1v2l-10 3 2 6 6 4 1 5 11 6-3 1-15-7h-12l2-2 9-1-5-13-13-7z" fill="#0559CC"/>
<path transform="translate(471,784)" d="m0 0 11 7 7 6 1 3h-19z" fill="#8B99AB"/>
<path transform="translate(765,731)" d="m0 0 12 1h21l1 3h-13l7 3v1h-14l-18-2v-4z" fill="#B8B7BF"/>
<path transform="translate(515,604)" d="m0 0 12 3v2l6 1 37 13 6 2-3 2-9-2-42-15-9-3v-2z" fill="#0F2C57"/>
<path transform="translate(899,642)" d="m0 0 1 2h5v2l4 2 2-4 1 4-2 1v5l3 6 3 3 1 6-3-1v3l-3-1 1-2h-5v-2h2l2-6-2 1-1 2-3-2v-2l3-2-5-1-2-3-3-10z" fill="#DED5BB"/>
<path transform="translate(1026,642)" d="m0 0h1l-1 7-3 5-1 2 4-1-1 3-2 1 1 3 2 1-2 6-2-1v-3l-3-1-1-3-4 4h-2l-1-3 2-3-2-1 5-8 2 3 2-4 5-5z" fill="#C1C8D2"/>
<path transform="translate(720,523)" d="m0 0h19l17 1 6 1v2h-21l3 1v3h-2v4l-5-1h-8v-3l6-1 1-3-10-1-6-1z" fill="#C5CAD3"/>
<path transform="translate(956,453)" d="m0 0h5l4 5h6l-1 4 1 4-1 2-6 1-10-1v-2h5l-3-4-1-8z" fill="#3F5471"/>
<path transform="translate(840,437)" d="m0 0 7 2 1 2-1 2 14 1v1h-5l-1 6h5l1 2-5 1v2l4 1h-11l-1-4h-2l-4-11z" fill="#2C4467"/>
<path transform="translate(846,65)" d="m0 0h3v5h5v4l-4 1v11l4 1v4h-7l-3-5v-12h-3l1-4h2v-4z" fill="#DEE2E8"/>
<path transform="translate(985,642)" d="m0 0 5 2 1-1 5 2h3l1-2 1 2h2l-1 4-3 1-1-2-2 2-2 5-5 4 2 6-1 2-7 1v-3l-2-2 4-6 2-1 1-2h2l-2-3v-6l-3-1z" fill="#A7B6CB"/>
<path transform="translate(708,457)" d="m0 0 19 1h16l29 2-8 4-5 1v-2h-10l-1-3h-30v2h6v1h-15v-1h7v-2l-16-1v-1z" fill="#0F283C"/>
<path transform="translate(878,643)" d="m0 0 1 3 1 4 6-2 1 3-3 3v3l-2 1-2 4-4 1 1 4 2 1-5 1-3-1v-2h3v-2l-5-1-5 1v-2h3l-1-5 4-1 1 3-1 2 7-2 1-3h3l-1-4-4 2v-3h-2l1-4 1-3z" fill="#204E97"/>
<path transform="translate(863,639)" d="m0 0 5 1 5 2-1 7-3 1v3l-5 1h-7l1-3h2v-3h-2l-1-5 5-1z" fill="#234472"/>
<path transform="translate(755,574)" d="m0 0h10l2 7 1 3-1 1-23-1v-3h10l2 1 1-2h-9l-2-1v-2l9-1z" fill="#A1A9BA"/>
<path transform="translate(713,571)" d="m0 0h10l2 3-1 1 15 1v4l2-4h3v4h-2v3h-15l-1-3 2-1-10-1-1-4-4-1z" fill="#B0B8C8"/>
<path transform="translate(928,637)" d="m0 0h30l2 4 3 3h-11l-11-1-1-1-12-1z" fill="#9EA8B7"/>
<path transform="translate(807,481)" d="m0 0h2v2h3v2l10 1v3l-9 1 9 1 1 3-2 2h-15v-9z" fill="#1E3B70"/>
<path transform="translate(835,549)" d="m0 0h13l22 1 1 3h-18l6 2v2l-24-1 1-4z" fill="#C1C9D4"/>
<path transform="translate(637,523)" d="m0 0h1v7h2l2 9 2 5v12l-2 3h-2l-1-9-4-3v-9z" fill="#06293D"/>
<path transform="translate(244)" d="m0 0h24l-2 5-2 4-9-1-10-4z" fill="#0138C2"/>
<path transform="translate(628,684)" d="m0 0h2v3h3v3l5 2-2 5-8 1v2l-6 3-3-1 6-3h2v-2h-11l-8-1v-2h19l-3-3-3-2h7l-1-4z" fill="#163058"/>
<path transform="translate(998,613)" d="m0 0h2v2l2 1 1 3-4 2-1 10h2v-6h2v3l1-3 4 2-4 6-3-1v5l-1 5-4 2-1-4-1-9 2-4h2v-3h-2l2-6z" fill="#AAB5C2"/>
<path transform="translate(657,784)" d="m0 0 13 1 37 4 5 2v2l-14-1-39-5-2-1z" fill="#C9CAD1"/>
<path transform="translate(1018,662)" d="m0 0 4 3v3l3 1v7l-2 5-14-1v-1h5v-6l2-3-2-3z" fill="#103A66"/>
<path transform="translate(997,647)" d="m0 0 3 3-2 1v2l3-1 4 7v2l-5 2v4l-6 1-1-3 1-2h2v-2h-3v-3l-2-1 3-3z" fill="#15304E"/>
<path transform="translate(987,607)" d="m0 0 2 1zm-1 1m-1 1h1v5h2l-1-3h3l3 12 1 8h-3l1-3h-3v2h-2l-1-3v-2l-5-1v2h-2l1-4 4-3v-8z" fill="#133865"/>
<path transform="translate(927,741)" d="m0 0h12l9 1 2 1v5h-13l-12-2z" fill="#08213B"/>
<path transform="translate(872,735)" d="m0 0 18 1 4 1v5l-5 1-18-2-2-1 2-4z" fill="#0A2137"/>
<path transform="translate(700,531)" d="m0 0h2v2l8-1 14 1 2 2h-22l1 3h-4l6 2v1l-11 1-1 3-5 2v-2l-3-1 6-1 1-6-3 1 1-6z" fill="#0A2133"/>
<path transform="translate(730,609)" d="m0 0h12l28 2 3 1h8l-2 1v2h-12l-25-2-4-2h-8z" fill="#B7B8C1"/>
<path transform="translate(1065,582)" d="m0 0 4 5 8 11 8 8 6 5-1 2-9-1v-2h-2l-4-6-4-9-6-9z" fill="#AEB5BF"/>
<path transform="translate(556,478)" d="m0 0 5 4 2 9-2 7 1 8v11l-2 1-2-11-2-22z" fill="#A9B1BE"/>
<path transform="translate(842,431)" d="m0 0 2 1 12 1v2l-14 1-1 5-4-2-11-1h-12v2h-2v-4h8l11-2v-2h6v2z" fill="#103046"/>
<path transform="translate(660,612)" d="m0 0 3 1-1 2h-2zm-4 3 19 2 7 1v2h3v2h-19l-10-1z" fill="#939FB0"/>
<path transform="translate(965,628)" d="m0 0 3 1-1 2 1 2h7l3-1 2-4 2 1 2 9h-3v2l-17-2-1-8z" fill="#062B47"/>
<path transform="translate(581,564)" d="m0 0 31 2v3l-2 1h-27l-2-1z" fill="#0B2239"/>
<path transform="translate(768,524)" d="m0 0 2 1h16l14 1v3l-10 1v3h-3l-11-1v-2l10-1-17-1-5-1v-2z" fill="#D6DADF"/>
<path transform="translate(701,480)" d="m0 0 6 1v1l-7 1-1 2 7-1h11l2 1v4l2 1h-9l-7-1v-3l-17 1-2-1 1-5h3v3l6-1-3-2z" fill="#112639"/>
<path transform="translate(878,638)" d="m0 0 18 1v3l-5 2-4 1 1 4h-7l-1 2-2-5-1-7z" fill="#062644"/>
<path transform="translate(692,620)" d="m0 0 16 1 13 3h18l-1 3h-10l-37-3z" fill="#8E7174"/>
<path transform="translate(580,669)" d="m0 0 3 3-2 5-8 2-13 1h-18l1-2 3-1h8l22-3 3-1z" fill="#15325E"/>
<path transform="translate(811,443)" d="m0 0 4 1 3 2-1 2h9v3l-10 1 8 2v3l-10 1-3-1-1-12z" fill="#556589"/>
<path transform="translate(1045,649)" d="m0 0 10 2 2 1v2h2l-1 4-12 3h-2v-10z" fill="#918B95"/>
<path transform="translate(1e3 575)" d="m0 0v3l-4 4 1 5-1 4 2 1h-5v2l-4 1-1-2h-4v-8h-2l1-4h3v3h4l2 5 1-4 1-6 3-3z" fill="#12468F"/>
<path transform="translate(855,637)" d="m0 0h15l-4 2-3 1v3h-5v5h2v3l-6 1v-3l-4-2-1-2h-4l1-3 7 2 1-6z" fill="#0F2B3F"/>
<path transform="translate(1168,526)" d="m0 0 4 4 1 5v9l-3 6-3 9h-1l1-22z" fill="#FFFFF9"/>
<path transform="translate(902,134)" d="m0 0h8l3 3v6l-2 3-9 1z" fill="#013AC2"/>
<path transform="translate(326)" d="m0 0h22l-1 6 1 7-2-2-1-6h-17l-7 12h-2l2-5 5-9z" fill="#0559CC"/>
<path transform="translate(778,687)" d="m0 0h15l43 4 5 1v1l-13 1-4 2 1-4h-22l-1 2h-2l1-4-20-1-4 2z" fill="#9499A7"/>
<path transform="translate(944,439)" d="m0 0h9l3 2 2 1v2l3 2v2h-5-2-8v-2l-6 2-3-1v-2l6-1z" fill="#223D5F"/>
<path transform="translate(697,438)" d="m0 0h9l8 1v1l-8 1-1 4 25 1v1l-10 1h-23l-7-1-1 2-1-3 5-1 6 1-3-4h3z" fill="#081E2D"/>
<path transform="translate(839,471)" d="m0 0h7l4 3v4l8 1v3h-16v-4l-4-1z" fill="#6F6F7B"/>
<path transform="translate(695,562)" d="m0 0h17l12 1v3l-4 1v2l-7 1-4-2-5 1 1-3-10-2z" fill="#AEB4C5"/>
<path transform="translate(1021,573)" d="m0 0h3v6l-3 6h-2l-1 3-6 4-1 3-6 2v-3l2-4h5v-2l4-2-1-1-1 2h-2l1-4 1-2h2v-2h2l1-3h2z" fill="#EBE3C5"/>
<path transform="translate(695,542)" d="m0 0h19l12 1 1 2-5 1-1 3h-9l-12-1v-2l8-1-10-1h-3z" fill="#B7B7BE"/>
<path transform="translate(561,452)" d="m0 0 4 2 2 7 3-1-1 4-4-1 2 11v3h-2v-3h-2l-1-3-3-1 1-9z" fill="#A8AEBB"/>
<path transform="translate(677,427)" d="m0 0h1v10l-3 24h-1l-1-7-2-1 1-7v-14l2-3h3z" fill="#B1ACB4"/>
<path transform="translate(605,152)" d="m0 0h10l2 2v6l-2 2-10 1z" fill="#013AC2"/>
<path transform="translate(967,658)" d="m0 0h2l1 5 3-1v2l5 1 4 1-1 3h-4l3 1v2h-7l-3-1v-2l4-1-5-1v2l-2 1v3h-4l-1-5 4-1-1-6z" fill="#798094"/>
<path transform="translate(846,693)" d="m0 0h11l43 4 3 3h-2v2h-2v-3h-11l-9-1-3 2-3-1 1-2-21-1-4 2v-3z" fill="#8D919F"/>
<path transform="translate(925,74)" d="m0 0 5 1 2 3-1 7-2 2h-6l-2-3v-7z" fill="#013CC3"/>
<path transform="translate(897,725)" d="m0 0 5 1-3 5v2l4 2-5 5-1 3 2 1h-6l-2-2h3v-5l-4-1 1-3h-9v-1l12-1 2-1z" fill="#9DA2AF"/>
<path transform="translate(969,667)" d="m0 0 5 1-1 2-3-1v2h7l3 2-1 2 7-1v4l-19-2-7-1 2-1 1-2h3l1-3h2z" fill="#D8D0BB"/>
<path transform="translate(694,602)" d="m0 0 24 1 21 2v3l-32-2-14-1z" fill="#AAAAB3"/>
<path transform="translate(580,444)" d="m0 0 3 2 3 6h3v2l-7 1-4 5-2-5-4-1h-2l-1 6h-1l-1-11 3-2 1 4h5l1 3h2l-1-8z" fill="#A4A9B5"/>
<path transform="translate(604,778)" d="m0 0h13l27 3 7 2v1h-15l-31-4z" fill="#D2D4DB"/>
<path transform="translate(711,505)" d="m0 0h16v1l9 1v3l-40-2v-2z" fill="#8D8F9E"/>
<path transform="translate(570,452)" d="m0 0 8 4-1 5-4-3-3 8h-3l1 14h-6l-2-10 3 1v3h2v3h2l-2-11v-3h4v-9z" fill="#8E7174"/>
<path transform="translate(0)" d="m0 0h24l-2 6h-5v-2l-9 1-6-1v2h-2z" fill="#0138C2"/>
<path transform="translate(422,47)" d="m0 0 1 2 1 15h16l2-4v3l-1 2 1 17 4 2-6 1-2-19h-15l-2-11v-4l-13 1 3-2 10-2z" fill="#0559CC"/>
<path transform="translate(728,456)" d="m0 0h29l18 1 1 3-33-1-16-1z" fill="#9DA1AE"/>
<path transform="translate(450,31)" d="m0 0 1 2 1 16h7l10 2 3 20-2 1-2-14-1-4-5-2-10-1-3 2 1-8-2-11h-13l1-2z" fill="#0559CC"/>
<path transform="translate(962,603)" d="m0 0h4l-1 4v4l1 4-1 1 6 1v2l-6 1v6l2 1h-5v11h-2l1-14v-10z" fill="#7D7F8F"/>
<path transform="translate(988,578)" d="m0 0 4 2 2 2-3 1-2-2-2 4h2l1 4-3 4h-2l-3 10h-1v-12l1-8h3l1-3h2z" fill="#C8CFD8"/>
<path transform="translate(725,74)" d="m0 0 5 1 2 2v7l-3 3h-5l-2-2v-8z" fill="#013DC3"/>
<path transform="translate(659,551)" d="m0 0 2 1 1 3-1 17-2 11-5-5-2-3 4-1 2-8v-14z" fill="#0551C8"/>
<path transform="translate(71,175)" d="m0 0 5 2 4 2 16-1v2l-13 3 2 11-20 2 1-2 16-2-3-11-8-4z" fill="#0559CC"/>
<path transform="translate(124)" d="m0 0h24l-6 8-17-6z" fill="#0138C2"/>
<path transform="translate(542,536)" d="m0 0 9 1 3 2-1 5-1 3 2 1-6-1-6-3z" fill="#1C3148"/>
<path transform="translate(730,490)" d="m0 0 13 2v2l2 1v2l-2 1h-20v-1l8-1-1-2h-6l-1-3z" fill="#9198AD"/>
<path transform="translate(605,133)" d="m0 0 9 1 2 3-1 5-4 2h-6z" fill="#013DC3"/>
<path transform="translate(925,736)" d="m0 0 29 2v1l-13 1-2 1-12 1-2 4h-13v-1l9-1 3-4z" fill="#9AA4B3"/>
<path transform="translate(623,667)" d="m0 0 4 2 5 4 1 2 5 1-3 3 1 2-8 4v4l-4-1h2v-3l-3-1 7-4-3-3-3-7z" fill="#B0B5BF"/>
<path transform="translate(689,498)" d="m0 0h6v2l-4 1 3 1v2h-3v2h3v2h-5v4h-9v-3l4-1 1-4v-3zm-2 4 1 2z" fill="#888792"/>
<path transform="translate(685,614)" d="m0 0h7l1 3-3 1 15 1 3 2h-16l-1 2h-11v-1h5v-2h-3v-2l2-1z" fill="#8B94A5"/>
<path transform="translate(1028,573)" d="m0 0 3 1-1 15-4 3h-4l-1-3 1-3h3l-1-5z" fill="#E7DDBA"/>
<path transform="translate(713,556)" d="m0 0 28 2-2 2h-11l-14-1v3l15-1 1 2h-4v3h-2v-3h-12l-11-1v-1h12v-3h-7v-1z" fill="#172D49"/>
<path transform="translate(442,676)" d="m0 0h1v9h8l2-1h11l7-1 13-1 3 2-2 1-26 2h-17z" fill="#172E43"/>
<path transform="translate(438,536)" d="m0 0 8 1v6l-2 2-1 6-5-1-1-5v-8z" fill="#E2E3E1"/>
<path transform="translate(699,478)" d="m0 0 19 1v2l-5 1 6 1v2h-20l1-3 1-1h-5v-2z" fill="#C0C1C9"/>
<path transform="translate(491,779)" d="m0 0 16 1 26 3 9 2v1h-10l-34-4-7-2z" fill="#B4B6C0"/>
<path transform="translate(533,610)" d="m0 0 9 2 56 19 2 2-9-2-7-2-43-15-8-3z" fill="#8B8999"/>
<path transform="translate(661,525)" d="m0 0 4 1v8l-2 6-3 3v4l-4-2-2-4 4-1-1-3 1-2 5-2v-4h-3l-1 2-1-4z" fill="#8D9BAD"/>
<path transform="translate(592,443)" d="m0 0 3 1 1 4 1 3-2 1-1 3h3l1-3 4 1-2 7h-2v2l-3-1v-5h-2l-1-4h-3v-6l3-1z" fill="#9EA6B5"/>
<path transform="translate(678,426)" d="m0 0h13l-4 7-6 2 1 3-4-1z" fill="#0C2438"/>
<path transform="translate(740,566)" d="m0 0 8 1v2h-6l2 7-3 1v3h-2v-4h-15l-5-1v-1l5-1-2-3h6l-1 4 14 1v-3h-11v-1l9-1-2-3z" fill="#0D2744"/>
<path transform="translate(573,534)" d="m0 0h24l7 1-2 2h-29l-10-1v-1z" fill="#9BA7B6"/>
<path transform="translate(705,526)" d="m0 0 28 1v2l-13 1 2 4-12-1v-2l2-2-7-1z" fill="#C4C9D2"/>
<path transform="translate(822,494)" d="m0 0h1l-1 14-2 19-2 1 1-15 2-15-16 1v-3l16-1z" fill="#052F4C"/>
<path transform="translate(632,352)" d="m0 0h1v8l-2-2-2 3-2 23-1 7-3 1 1-16 2-6 2-14z" fill="#013AC2"/>
<path transform="translate(836,537)" d="m0 0h23l17 2v2l-29-1-11-1z" fill="#D3D7DE"/>
<path transform="translate(702,447)" d="m0 0h21l12 1h9v2l-2 1-22-1h-15l-4-2z" fill="#B9BCC6"/>
<path transform="translate(749,728)" d="m0 0h10l28 3v2h-13l-9-1-6 2-3-3v-2h-7z" fill="#C8C9D0"/>
<path transform="translate(966,613)" d="m0 0 4 1 9 2-1 3h-1l-5 4-4 1v2h-3l-1-6 1-1h6v-2h-9z" fill="#042942"/>
<path transform="translate(694,596)" d="m0 0 3 1v2h-2l-1 4-1 2 3-1 4 2-4 2h11v2l6 1v1l-11 1-2 1-1-3h-5l-1-5-3-1v-2l2-6z" fill="#112536"/>
<path transform="translate(1129,508)" d="m0 0h5l1 13v21h-1l-1-18-1-7-2-1-1 9h-1v-16z" fill="#E4E7EC"/>
<path transform="translate(745,495)" d="m0 0h4v3l-4 1-2 5-3 2v-2l-10-1 1-3 4-2 10-1z" fill="#2F3E50"/>
<path transform="translate(836,635)" d="m0 0h9l11 1-3 8-7-2 2-3h-5l-4 4-2-2 1-4z" fill="#0C3050"/>
<path transform="translate(1016,610)" d="m0 0 2 1v9l-1 2v5h-2v-7l-1 3h-3v-3l-3 1-1-4h2v-5l1 2 5-2z" fill="#D7DBE2"/>
<path transform="translate(722,567)" d="m0 0 16 1 3 4v3l-14-1 1-4h-6z" fill="#BBBCC4"/>
<path transform="translate(483,648)" d="m0 0h12v11h-1l-1-8-5-1-7 12v6l-1 1h-8v-1h6l1-8 4-10-2-1z" fill="#ADB1BB"/>
<path transform="translate(1164,584)" d="m0 0h7l2 2v6l-2 2h-6v5h-1z" fill="#232F3D"/>
<path transform="translate(722,584)" d="m0 0h16l9 1v3h-2v3h-2v-3h-3l1 3h-3l-1-3-12-1-3-1z" fill="#CED3DA"/>
<path transform="translate(461,580)" d="m0 0 3 1 3 9h2l3-9 3-1v15l-2-1-1-8-3 8h-2l-4-9-1 9h-1z" fill="#3B3F4B"/>
<path transform="translate(484,773)" d="m0 0h2v2l-8 3 1 3-11 1-2-1v3h-2v-7l16-3z" fill="#14305E"/>
<path transform="translate(896,634)" d="m0 0h16l32 2v1l-5 1h-8l-3-1-1 2-12-2-19-2z" fill="#9DA8B6"/>
<path transform="translate(839,508)" d="m0 0h23l11 1v3l-23-1-11-1z" fill="#CBD0D9"/>
<path transform="translate(600,467)" d="m0 0 3 1v5h2v6l-2 1h-7v-3l-1-3 2-1 2-5z" fill="#152D43"/>
<path transform="translate(583,435)" d="m0 0h1l2 17-3-3-2-4-2 1-1 3h-2l-2-8v-4l5 2 3 3z" fill="#EEE3BA"/>
<path transform="translate(985,648)" d="m0 0 1 2-2-1zm-17 1h2l2 2 7 1v-2h5v5l-5 4h-2l-3-3v-2l-6-1z" fill="#0D3C73"/>
<path transform="translate(544,616)" d="m0 0h6l26 9-3 2-9-2-19-7z" fill="#0D2A50"/>
<path transform="translate(683,529)" d="m0 0 5 1v3l3-1 1 3 4 1h-5l3 1v3h-10l1-5-4-1 3-2z" fill="#324360"/>
<path transform="translate(44,266)" d="m0 0 5 5 10 5 9-2-4 3-4 1-3 10-3 8 6 2-3 1-5-2 3-10 2-5v-4l-15-8z" fill="#0559CC"/>
<path transform="translate(1014,639)" d="m0 0 1 3-1 2h2l-1 6h-4l-2 5-2 1v-5l-4 2 2-5 5-5z" fill="#607BA3"/>
<path transform="translate(696,606)" d="m0 0 33 2-3 3h-11l-8-1v-2l-2 1h-10l-1-2z" fill="#B8B8C1"/>
<path transform="translate(831,582)" d="m0 0 27 1 1 3-6 1-3-1-21-1v-2z" fill="#C1C5CE"/>
<path transform="translate(569,480)" d="m0 0h12l21 1-4 2h-15l-1 5-5-1-1-5-7-1z" fill="#A1AAB7"/>
<path transform="translate(939,642)" d="m0 0 19 2-2 4-4 1-2 2-2-5-6 2v-2l-7 2 1-3h2z" fill="#0C3469"/>
<path transform="translate(907,655)" d="m0 0h4l2 5 3 3 1 6-3-1v3l-3-1 1-2h-5v-2h2l2-6-2 1-1 2-3-2v-2l3-2z" fill="#AEB0BA"/>
<path transform="translate(834,558)" d="m0 0h27l7 1v3l-34-2z" fill="#D0D6DD"/>
<path transform="translate(673,474)" d="m0 0h4l-1 8-4 16-2 2v-8l2-15z" fill="#092033"/>
<path transform="translate(746,459)" d="m0 0 26 1-8 4-5 1v-2h-10l-1-3z" fill="#071C2A"/>
<path transform="translate(967,650)" d="m0 0 2 1-1 2 6 1v2l3 1v2l7-4-2 4-3 1v2l-4-1-1-2h-3v-3h-5v3h-2l-2-8 5 1z" fill="#99A8BB"/>
<path transform="translate(869,652)" d="m0 0 4 3 2-2 5-1 1 4h-3l-1 4-7 1v-4h-4v-2l-3-1z" fill="#173049"/>
<path transform="translate(828,621)" d="m0 0 1 2h17v-2l3 1 1 4-10-1v2h-12z" fill="#6583B9"/>
<path transform="translate(714,566)" d="m0 0h25l-2 2h-9l-6-1v4h-10l-1-2h9v-2h-6zm-10 4h6l2 2-1 1h-7z" fill="#636D80"/>
<path transform="translate(1016,650)" d="m0 0 2 3v-2l3 1v2h-3l-2 5 5-1 1 4-4-1-4 4h-2l-1-3 2-3-2-1z" fill="#295AA5"/>
<path transform="translate(757,561)" d="m0 0h12l4 1-1 3h-5v3h-7l-1-3-3-1z" fill="#CDCED5"/>
<path transform="translate(714,559)" d="m0 0h14l11 1v3l-13 1 2-2h-14z" fill="#C4C6CE"/>
<path transform="translate(853,592)" d="m0 0 9 1-1 3 3 1v2l-5 1-2-2-1 1h-7v-4h4z" fill="#AAA9B2"/>
<path transform="translate(697,498)" d="m0 0h22l12 1-1 2h-20l-13-1z" fill="#BFC4CD"/>
<path transform="translate(756,468)" d="m0 0h11l17 1-2 3h-13l-4-1h-9z" fill="#B2ACB3"/>
<path transform="translate(628,796)" d="m0 0h12l20 1 14 2v1h-21l-25-3z" fill="#AEB3BE"/>
<path transform="translate(902,698)" d="m0 0h9l23 2 2 2-7 1-2 2h-3v-4h-13l-8-1z" fill="#8C8F9E"/>
<path transform="translate(990,697)" d="m0 0 16 1 10 1-3 2-8 1-15-1z" fill="#0238C0"/>
<path transform="translate(648,703)" d="m0 0h2v2h-3v2l-5 2-1 1 3 2-9 3h-8v-2l8-1-1-3 3-1 1-2 4 1v-2z" fill="#304360"/>
<path transform="translate(603,634)" d="m0 0 9 2 11 1v7l-8-1 2-2-15-5z" fill="#13336A"/>
<path transform="translate(723,544)" d="m0 0 3 2 1 4-4 2-6-1h-12l-3 6-2-1 1-4h2v-2l-2-1 16-1 4 1v-2l-2-1z" fill="#0C2132"/>
<path transform="translate(840,504)" d="m0 0h27l3 1v2h-19l-11-1z" fill="#D7DBE2"/>
<path transform="translate(683,486)" d="m0 0h22v2l-8 1h-4l2 1v2h-9l1-4h-4z" fill="#808697"/>
<path transform="translate(657,784)" d="m0 0 13 1 17 2 2 2h-14l-16-2-2-1z" fill="#CCCED5"/>
<path transform="translate(746,449)" d="m0 0h32l1 3h-11l-9-1h-13z" fill="#C1C1C9"/>
<path transform="translate(627,401)" d="m0 0h2l1 9-5 5h-2l-1-2v-10l5-1z" fill="#053156"/>
<path transform="translate(376)" d="m0 0h17l-8 4-8 1-7 12-2-1 7-12z" fill="#034DC8"/>
<path transform="translate(955,656)" d="m0 0 6 1v9l-4-1v-2l-6 2-2-5 5-1 1 1 1-2h-5z" fill="#D9DADD"/>
<path transform="translate(985,642)" d="m0 0 5 2 1-1 5 2h3l1-2 1 2h2l-1 4-3 1-1-2-3 2-3-1v-2h-2v3l4 1-4 2-2-2v-6l-3-1z" fill="#728EB9"/>
<path transform="translate(436,580)" d="m0 0h2v6h7v-6h2v15h-2v-7h-7v6h-2z" fill="#313C4C"/>
<path transform="translate(746,528)" d="m0 0h12l16 1v3l-28-1z" fill="#C1C6D0"/>
<path transform="translate(631,683)" d="m0 0 1 2 5 1 4 6 3 2-1 3h-7l2-5-6-1 1-4h-3z" fill="#0B2B3D"/>
<path transform="translate(841,651)" d="m0 0h3l3 3v7h2l-1 4-5-1-2-5z" fill="#909EAF"/>
<path transform="translate(986,644)" d="m0 0 3 1v6l2 3-3 3-4 2-2 4h-2l-1 2v-5l4-3 1-7h2l-1-3z" fill="#08335C"/>
<path transform="translate(993,603)" d="m0 0h2v2h4l-1 4h-2v8l-1 2h-2v-2h-2v-9z" fill="#3666B3"/>
<path transform="translate(987,607)" d="m0 0 2 1zm-1 1m-1 1h1v5h2l-1-3h3l1 5-4 2-2 7-4-1v2h-2l1-4 4-3v-8z" fill="#1B334C"/>
<path transform="translate(739,526)" d="m0 0 5 2v3h-2v4l-5-1h-8v-3l6-1 1-3z" fill="#A7AAB7"/>
<path transform="translate(592,482)" d="m0 0 4 1 1 2-1 5-10 2-3-3 6-2 1-4z" fill="#E4E7EC"/>
<path transform="translate(739,464)" d="m0 0h25l5 1v2h-22l-8-1z" fill="#B7B2B9"/>
<path transform="translate(947,664)" d="m0 0h3l4 6v3l3 1h-13v-5l3-3z" fill="#E0DAC7"/>
<path transform="translate(669,493)" d="m0 0h1l-1 14-6-2-1-5 5-5h2z" fill="#B4B2BB"/>
<path transform="translate(745,683)" d="m0 0 18 1 14 2v1h-19l-5 2v-3l-12-1z" fill="#A1A7B5"/>
<path transform="translate(878,643)" d="m0 0 1 3 1 4 6-2 1 3-3 3v3h-3l-1-5-4 2v-3h-2l1-4 1-3z" fill="#23529A"/>
<path transform="translate(1017,641)" d="m0 0 1 4-1 3h2l-1 5-2-1-2 2-2 4-4 1 1-6 2-3h4l1-6h-2l-1 4v-5z" fill="#CED3DB"/>
<path transform="translate(651,542)" d="m0 0 3 1 5 7-1 3-7-2v-2h-2l-1 4v-6z" fill="#9AA7B8"/>
<path transform="translate(540,528)" d="m0 0 3 1 1 3 11 4v6l-4-4-8-1-1 7h-1z" fill="#8F767A"/>
<path transform="translate(1008,626)" d="m0 0 3 1-1 3h6l2-3h3l1 7-3 3h-4l-2-4-4-1-2 1z" fill="#587EB7"/>
<path transform="translate(821,565)" d="m0 0h4l-1 11-1 5v3h-3l-1-5 1-6v-7z" fill="#75839E"/>
<path transform="translate(858,545)" d="m0 0h7l5 5h-22l3-2z" fill="#04376C"/>
<path transform="translate(692,428)" d="m0 0h23v1h-8v3h-15z" fill="#4872C4"/>
<path transform="translate(1e3 663)" d="m0 0v3l-3 10h-2l-1-2-7-4 2-1 1-2 7-1z" fill="#154A9E"/>
<path transform="translate(745,570)" d="m0 0 3 2 7 1 1 4h-10v2l2 1h-4l-2-9z" fill="#5A697E"/>
<path transform="translate(690,459)" d="m0 0h23l3 1v2h-19l-7-1z" fill="#A99FA5"/>
<path transform="translate(923,652)" d="m0 0 5 1v2l3-1-3 6 4-2 1 3h-3l1 4h-2l-1 6-2-1 1-8h-2l2-6-3-1z" fill="#A6979C"/>
<path transform="translate(730,609)" d="m0 0h12l13 1v3h-13l-4-2h-8z" fill="#C1C2C9"/>
<path transform="translate(741,576)" d="m0 0h3v4h-2v3h-15l-1-3 14-1z" fill="#A0A7B8"/>
<path transform="translate(908,660)" d="m0 0h3v2l2 1-3 1-1 2 1 1 2 1v2l2 2-11-1v-6l2-2h4z" fill="#163763"/>
<path transform="translate(905,640)" d="m0 0 7 1v2h3l1 3h-2v2h-2l-1-3-2 3-5-2zm5 8 2 1-2 3z" fill="#B2A9AD"/>
<path transform="translate(1152,624)" d="m0 0h4l-1 4h-16l-12-1-3-2h22z" fill="#B1B6C0"/>
<path transform="translate(1e3 593)" d="m0 0h1v5l10 1 1 5-3-1-1 2v-2l-9-1-4 1 1-4 3-2z" fill="#0242C1"/>
<path transform="translate(748,567)" d="m0 0h8l4 3v2h-13l-2-1h-4l1-3 6 1z" fill="#BBBBC3"/>
<path transform="translate(969,521)" d="m0 0 5 1-2 1 1 3v2 5l-2 3h-4l1-13z" fill="#1B54C3"/>
<path transform="translate(689,491)" d="m0 0 6 1v6l-10 2v-4l1-4z" fill="#596271"/>
<path transform="translate(676,466)" d="m0 0h5l-2 14h-3v-5l-3-1v-5z" fill="#2E4A67"/>
<path transform="translate(843,612)" d="m0 0h9l9 1 1 3-3 4v-2l-8-1-1-4h-7z" fill="#083679"/>
<path transform="translate(986,570)" d="m0 0 4 1 2 1v2h-2v2l3 1 1 4-6-3-1 2-4-4 2-4z" fill="#053773"/>
<path transform="translate(694,507)" d="m0 0 2 1 12 1v1l-9 1-2 2-9 2-2-3h3v-4z" fill="#051A29"/>
<path transform="translate(972,460)" d="m0 0 7 1-2 4-1 4v6l-4-1z" fill="#677EA5"/>
<path transform="translate(718,460)" d="m0 0h30v2l-12 1-18-1z" fill="#BABEC8"/>
<path transform="translate(716,555)" d="m0 0h21l4 1v2h-17l-9-1z" fill="#C8CBD2"/>
<path transform="translate(793,526)" d="m0 0h7v3l-10 1v3h-3l-11-1v-2l10-1v-1h7z" fill="#B9BEC8"/>
<path transform="translate(688,467)" d="m0 0h9v5l-1 1h-12l1-3z" fill="#595967"/>
<path transform="translate(991,439)" d="m0 0h1v7l-3-1-15-1v-3l16-1z" fill="#19314D"/>
<path transform="translate(928,637)" d="m0 0h20v1h-5v4l-15-1z" fill="#E1E5EA"/>
<path transform="translate(1024,611)" d="m0 0 1 2h3v2l-2 1-1 6 3-1v3l-4 2h-3-2v-2h2v-2h-2v-2h2l2-4-1-4z" fill="#6086CB"/>
<path transform="translate(663,618)" d="m0 0 9 1h8l5 1v2h-19l-4-2z" fill="#E4E7EC"/>
<path transform="translate(1123,584)" d="m0 0h5l1 1v9l-6 1-2-2 1-4 5-1v-2h-5z" fill="#797A84"/>
<path transform="translate(1103,584)" d="m0 0h5l2 2v8h-8v-5l6-1v-2h-5z" fill="#505661"/>
<path transform="translate(708,579)" d="m0 0h11v3h-7v4l-8-1 1-3h3z" fill="#A7AEC1"/>
<path transform="translate(984,550)" d="m0 0h6l4 3v2h-3l1 5-2 1-4-3 1-2h-2l1-3-2-1z" fill="#154074"/>
<path transform="translate(652,519)" d="m0 0 4 2v-2h3l2 3-1 5h-4l1 3-3-1z" fill="#0C3051"/>
<path transform="translate(809,475)" d="m0 0h8l5 1v4h-13z" fill="#B0B6C1"/>
<path transform="translate(810,468)" d="m0 0h9l4 1-1 4h-12z" fill="#AEB6C2"/>
<path transform="translate(737,467)" d="m0 0 17 1-2 3h-8l-7-1h-9v-2z" fill="#B3B4BD"/>
<path transform="translate(700,455)" d="m0 0h26v2l-2 1h-24z" fill="#B7B4BC"/>
<path transform="translate(737,445)" d="m0 0 37 2v1l-29 1-10-2z" fill="#051A27"/>
<path transform="translate(841,487)" d="m0 0h19l3 1v3l-21-1z" fill="#BFC7D1"/>
<path transform="translate(781,449)" d="m0 0h25v2l-6 1h-19z" fill="#C0C2C9"/>
<path transform="translate(110,224)" d="m0 0 6 2h8l-3 2h-3l-5 15 6 4-2 1-8-4 5-11 1-5-5-3z" fill="#0559CC"/>
<path transform="translate(847,550)" d="m0 0h23l1 3h-11l-13-1z" fill="#D0D4DB"/>
<path transform="translate(838,524)" d="m0 0h17l3 1-1 3-19-1z" fill="#BCC1CA"/>
<path transform="translate(698,490)" d="m0 0h19l5 1v2h-15l-10-1z" fill="#BCC1CA"/>
<path transform="translate(866,707)" d="m0 0h5l-1 4-2 2 2 1-2 4-2 3h-4v-2h3v-5l-3-1 4-1z" fill="#738097"/>
<path transform="translate(850,521)" d="m0 0h23l1 3h-10l-14-1z" fill="#D1D5DD"/>
<path transform="translate(778,687)" d="m0 0h15l12 2v2l-3 3h-2l1-4-20-1-4 2z" fill="#B0B2BC"/>
<path transform="translate(997,647)" d="m0 0 3 3-2 1v2l3-1 1 3-6 3v2h-3v-2l-2-1 3-3z" fill="#083461"/>
<path transform="translate(828,608)" d="m0 0h21l4 1v2l-25-1z" fill="#C9CDD5"/>
<path transform="translate(697,598)" d="m0 0h11l11 1 1 3h-12v-2l-2 1h-11v-2z" fill="#AFA9B0"/>
<path transform="translate(1e3 575)" d="m0 0v3l-4 4 1 5-1 4 2 1h-5v2h-2l1-4 1-5 1-6 3-3z" fill="#5D80BA"/>
<path transform="translate(693,574)" d="m0 0h11l-1 3-3 1 1 3h-8z" fill="#C1C4CC"/>
<path transform="translate(705,550)" d="m0 0h12l11 1 1 3-21-1-4-2z" fill="#ADA9B1"/>
<path transform="translate(823,540)" d="m0 0h4v5l-1 2v8h-4v-10z" fill="#65799F"/>
<path transform="translate(691,536)" d="m0 0h7l3 2 6 2v1l-11 1-1 3-5 2v-2l-3-1 6-1 1-6-3 1z" fill="#071C2A"/>
<path transform="translate(710,507)" d="m0 0h26v3l-26-1z" fill="#CAC8CE"/>
<path transform="translate(887,452)" d="m0 0h9l5 1v1l-9 1 4 3h-14l1-2 3-1z" fill="#4E6086"/>
<path transform="translate(826,438)" d="m0 0h13v4l-3 1v6l-2-4v-3l-8-1z" fill="#2C3F56"/>
<path transform="translate(608,704)" d="m0 0 2 1-4 3-6 3-16-1-4-2h20z" fill="#28406A"/>
<path transform="translate(511,685)" d="m0 0h27v1l-21 2h-14l1-2z" fill="#AAB3BE"/>
<path transform="translate(716,681)" d="m0 0h14l15 2v1l-13 1v2l-2-1 1-3h-11z" fill="#A9B2C0"/>
<path transform="translate(952,638)" d="m0 0h18l6 1v1h-10l-1 4-6-2 1-3h-8z" fill="#D8DBE2"/>
<path transform="translate(717,604)" d="m0 0h11l11 1v3l-20-1z" fill="#C2C3CB"/>
<path transform="translate(964,567)" d="m0 0 6 1-2 3-1 6 1 1v5l-4 1z" fill="#717B92"/>
<path transform="translate(744,531)" d="m0 0 15 1 4 1v2h-20z" fill="#BABCC6"/>
<path transform="translate(733,526)" d="m0 0h6l-4 2-1 2h-6v4h-6l-2-3-6-1v-1h19z" fill="#46649C"/>
<path transform="translate(839,504)" d="m0 0 1 2h27l5 2v1l-33-1z" fill="#0742BB"/>
<path transform="translate(744,457)" d="m0 0h31l1 3-22-1-10-1z" fill="#D5D9E0"/>
<path transform="translate(595,562)" d="m0 0h12l-2 2h9l-1 6-3-1h2v-3h-18z" fill="#7986A0"/>
<path transform="translate(661,507)" d="m0 0 8 1-1 8-4-2-1 3h-3l1-6h2v-2h-2z" fill="#0D2F4E"/>
<path transform="translate(604,778)" d="m0 0h13l10 2v2l-14-1-8-1z" fill="#C5C6CE"/>
<path transform="translate(897,639)" d="m0 0 1 2-1 5-8 4-3-1h2l-2-6h5l5-1z" fill="#949BAA"/>
<path transform="translate(742,580)" d="m0 0h15l-1 3-2-1-10-1v4l-22-1 4-2 16 1z" fill="#152C52"/>
<path transform="translate(715,545)" d="m0 0h7l-1 4h-9l-12-1v-2z" fill="#9F9DA7"/>
<path transform="translate(1009,620)" d="m0 0h2v3h3l-1-3h2l1 4-2 6h-4l-1-4-3-4z" fill="#074396"/>
<path transform="translate(716,485)" d="m0 0h3v4l2 1h-9l-7-1 1-3z" fill="#051A28"/>
<path transform="translate(632,706)" d="m0 0v3l-11 5-17-2-1-2 19 1z" fill="#0E3468"/>
<path transform="translate(990,657)" d="m0 0 3 1v3h3v2h-2l-1 6-6 2v-2l2-1 1-4-2-6z" fill="#164693"/>
<path transform="translate(699,467)" d="m0 0h11l14 1v2h-16l-2-1h-7z" fill="#B6B8C1"/>
<path transform="translate(813,452)" d="m0 0 11 2v3l-10 1-3-1z" fill="#AAADB8"/>
<path transform="translate(875,696)" d="m0 0h13l12 1 3 3h-2v2h-2v-3h-11l-11-1z" fill="#9EA1AE"/>
<path transform="translate(651,675)" d="m0 0 23 1 7 1v1l-17 1-1-1-10-1z" fill="#C6C9D2"/>
<path transform="translate(580,669)" d="m0 0 3 3-2 5-8 2h-6v-1l5-1-1-2 8-2z" fill="#12346D"/>
<path transform="translate(1056,653)" d="m0 0 3 1-1 4-12 3h-2l2-4 10-2z" fill="#17325B"/>
<path transform="translate(809,653)" d="m0 0 6 2-3 5h-9l2-5z" fill="#1B2F45"/>
<path transform="translate(775,562)" d="m0 0h12l5 1v3l-14-1-4-2z" fill="#CED3DC"/>
<path transform="translate(844,552)" d="m0 0h16l1 4 6 2v1l-12-1 4-1v-2l-13-1z" fill="#0E4896"/>
<path transform="translate(807,491)" d="m0 0 5 1v2l3-2h6l-2 4h-13z" fill="#8D7E85"/>
<path transform="translate(573,457)" d="m0 0 3 2-1 6h-3l-2 7-3 1v-7h3z" fill="#1B2F45"/>
<path transform="translate(811,330)" d="m0 0 5 1v1l-5 1 1 3 5 4-1 4-7 1v-2l5-1v-2l-6-4 1-5z" fill="#2F3744"/>
<path transform="translate(877,731)" d="m0 0 14 2 1 3h-13l-1-2-5-1z" fill="#B5B9C3"/>
<path transform="translate(891,709)" d="m0 0 4 1-2 4-1 3h4v2h-2v2h-2v3h-5l3-3v-4l-3-2h3z" fill="#99929B"/>
<path transform="translate(627,673)" d="m0 0 3 4 3 1v2l3 1-8 4v4l-4-1h2v-3l-3-1 7-4-3-3z" fill="#ACB1BD"/>
<path transform="translate(985,624)" d="m0 0 3 3v3l-1 5-5-2 1-5-2-1 1-2z" fill="#BFC7D1"/>
<path transform="translate(832,586)" d="m0 0 19 1 1 3-20-1z" fill="#C2C8D1"/>
<path transform="translate(768,566)" d="m0 0h15l2 1v2h-17z" fill="#C7CCD4"/>
<path transform="translate(694,522)" d="m0 0h24v2l-2 1h-10l-12-1z" fill="#B8BFC9"/>
<path transform="translate(807,481)" d="m0 0h2v2h3v2l7 1-1 2-12 1z" fill="#9696A2"/>
<path transform="translate(703,463)" d="m0 0h20v3l-21-1z" fill="#CACFD8"/>
<path transform="translate(701,691)" d="m0 0h4v2l-6 2 1 4-7 5-4-1 4-3h3l-1-4 1-2 4-1z" fill="#7D8496"/>
<path transform="translate(975,664)" d="m0 0 6 2v3h-4l3 1v2h-7l-3-1v-2l4-1h-2v-3z" fill="#796B73"/>
<path transform="translate(1021,655)" d="m0 0h5l-1 3-2 1 1 3 2 1-2 6-2-1v-3l-3-1v-2h3l-1-4-3-1z" fill="#7D98C4"/>
<path transform="translate(598,634)" d="m0 0 19 6 4 2h-9l-12-4z" fill="#09233E"/>
<path transform="translate(1006,613)" d="m0 0h1l1 9-1 2h-6l1-4-2-1h3l1-4h2z" fill="#CED4DE"/>
<path transform="translate(830,612)" d="m0 0h13l7 1v2l-6 1-14-2z" fill="#C5C9D2"/>
<path transform="translate(819,586)" d="m0 0h3v6h-3v2h3v6h-4v-10z" fill="#8D929F"/>
<path transform="translate(577,507)" d="m0 0h7v3l-3 4-4-1-2-2v-3z" fill="#A9B2BE"/>
<path transform="translate(563,464)" d="m0 0 3 2 1 11h-2v-3h-2l-1-3-3-1 1-4h2z" fill="#B5BDC8"/>
<path transform="translate(789,330)" d="m0 0h5l1 2-7 2v7l7 2-1 2-7-1-2-4v-6z" fill="#2B3543"/>
<path transform="translate(697,600)" d="m0 0h11v2l10-1 4 3-25-1-2-2z" fill="#1B2F43"/>
<path transform="translate(693,518)" d="m0 0h7l-1 4h-5v2h-8v-3h7z" fill="#6F6B76"/>
<path transform="translate(971,490)" d="m0 0 6 2v2l-4-1v3h4v2l-5-1 1 4-1 1 5 1v1h-7v-8z" fill="#A7B1BF"/>
<path transform="translate(800,330)" d="m0 0h5l1 2-6 1 1 3 5 3-1 5-6 1-1-2h6l-2-4-4-2v-5z" fill="#2B3543"/>
<path transform="translate(472,785)" d="m0 0 12 7 5 5-1 2-16-11z" fill="#B0B4BF"/>
<path transform="translate(946,645)" d="m0 0 3 1 2 4 2 1-2 4 3 1h-6v-6l-4 1-1-5z" fill="#2A58AD"/>
<path transform="translate(1e3 625)" d="m0 0h2v3l1-3 4 2-4 6h-6l-1-5h2v3h2z" fill="#2355A9"/>
<path transform="translate(848,522)" d="m0 0 16 1 2 5h-6v-4l-10 1-8-1v-1z" fill="#446FBE"/>
<path transform="translate(842,479)" d="m0 0h16v3h-16z" fill="#BDC5CF"/>
<path transform="translate(535,678)" d="m0 0h6l4 3-24 1v-1l7-1z" fill="#0F3680"/>
<path transform="translate(873,645)" d="m0 0 3 1-2 5h2l1-2v3l-4 4-4-4v-2l3-3-2-1z" fill="#0A2B41"/>
<path transform="translate(723,575)" d="m0 0 16 1v3h-11l-6-2z" fill="#D4D6DC"/>
<path transform="translate(834,561)" d="m0 0 17 1v3l-17-1z" fill="#C7CDD6"/>
<path transform="translate(842,483)" d="m0 0 18 1v2h-19z" fill="#C6CDD6"/>
<path transform="translate(972,476)" d="m0 0 4 1v8l2 1h-7v-8z" fill="#9AAAC4"/>
<path transform="translate(855,451)" d="m0 0h5l1 2-5 1v2l4 1h-11l1-4z" fill="#3E5A87"/>
<path transform="translate(766,730)" d="m0 0h11l10 1v2h-13l-8-1z" fill="#C6C9D1"/>
<path transform="translate(855,637)" d="m0 0h15l-4 2-3 1v3h-4l-1-4-2 2-2-1z" fill="#142D4C"/>
<path transform="translate(999,620)" d="m0 0h3l-1 4 7-1-2 4-3-2-1 4-1-2 1-2h-2v6h-2v-10z" fill="#A9B7CA"/>
<path transform="translate(829,620)" d="m0 0 17 1v2l-6 1-11-1z" fill="#CED3DB"/>
<path transform="translate(831,595)" d="m0 0h12l3 1v2l-4 1-11-1z" fill="#C7CDD7"/>
<path transform="translate(963,585)" d="m0 0h5v6h-2l-1 8h-2v-10-3z" fill="#686B85"/>
<path transform="translate(1134,580)" d="m0 0h5v2l-5 1-1 2 5 2 2 2-1 5h-7l1-2h4l1-3-5-2-1-5z" fill="#232F3C"/>
<path transform="translate(758,568)" d="m0 0h8l-4 2v2h2v2h-9l-2 1v-2h-5v-1h12z" fill="#2F406A"/>
<path transform="translate(1e3 556)" d="m0 0 1 2h3l-2 9-2 4-2-4 2-3v-2h2v-2l-6 2 2-4z" fill="#043D91"/>
<path transform="translate(835,549)" d="m0 0h13l-2 5h-7l-4-3z" fill="#B6BECA"/>
<path transform="translate(702,518)" d="m0 0h21l1 3h-15l-7-1z" fill="#C5C9D1"/>
<path transform="translate(846,463)" d="m0 0 4 1v2h-4l2 1v5l-9-1 2-1 1-3v-2h4z" fill="#35465A"/>
<path transform="translate(690,435)" d="m0 0h14v3h-15z" fill="#957E82"/>
<path transform="translate(328)" d="m0 0h18l-2 3h-10l-6-2z" fill="#0138C2"/>
<path transform="translate(576,790)" d="m0 0h16v2l12 1v1h-10l-18-3z" fill="#B8B7C0"/>
<path transform="translate(925,736)" d="m0 0h2v4h5v1l-5 1-2 4h-13v-1l9-1 3-4z" fill="#8D8D9B"/>
<path transform="translate(818,702)" d="m0 0 3 1-4 7 3 1-5 5-4-1 4-4 1-2-4-1 2-2h3z" fill="#9DA2B9"/>
<path transform="translate(976,668)" d="m0 0 11 1-2 2 3 5h-2v-2l-7 1 1-5-4-1z" fill="#9F9193"/>
<path transform="translate(19,204)" d="m0 0m-3 1h3v2l-19 7v-3z" fill="#0559CC"/>
<path transform="translate(456,769)" d="m0 0 4 4 1 2 6 1-3 2h-2l-1 7-2-3-3-10z" fill="#142E45"/>
<path transform="translate(897,725)" d="m0 0 5 1-3 5v3l-17-1v-1l12-1 2-1z" fill="#9A9DA9"/>
<path transform="translate(483,682)" d="m0 0 4 2-2 1-21 1 1-2 6-1z" fill="#1B2F45"/>
<path transform="translate(849,637)" d="m0 0v3l-3 1-1 5-4-1-2 1 2-6 2-2h5z" fill="#034CC8"/>
<path transform="translate(849,622)" d="m0 0h2v4h5l1 3-15-1v-3l8 1z" fill="#CCD2DB"/>
<path transform="translate(515,604)" d="m0 0 12 3-2 4-12-4v-2z" fill="#293E65"/>
<path transform="translate(662,592)" d="m0 0h2l1 5-1 3v6h-4z" fill="#586686"/>
<path transform="translate(696,591)" d="m0 0 7 1-2 2v3h-9l-1-3 4-1z" fill="#7E7D88"/>
<path transform="translate(777,579)" d="m0 0h14v3h-14z" fill="#CACED6"/>
<path transform="translate(722,570)" d="m0 0h6l-1 4h7l1 2h-11l-5-1v-1l5-1z" fill="#2B3A56"/>
<path transform="translate(1007,560)" d="m0 0 4 1-1 5-3 1-2 5h-2v2l-2-1 3-7z" fill="#6983AC"/>
<path transform="translate(1028,562)" d="m0 0h2l1 12-6 2-1-3 3-5z" fill="#FCFCF7"/>
<path transform="translate(731,495)" d="m0 0h14v2l-2 1h-20v-1l8-1z" fill="#AAABB5"/>
<path transform="translate(687,478)" d="m0 0h9l1 6h-7v-3l-3-1z" fill="#74737F"/>
<path transform="translate(738,351)" d="m0 0 5 1 5 6h-6l-1-2 2-1-1-1h-18l4-2z" fill="#B9B7C0"/>
<path transform="translate(656,708)" d="m0 0h5v2l-4 2 6 2v2l-11-1 1-3 2-1z" fill="#414E63"/>
<path transform="translate(961,703)" d="m0 0 21 2v2l-5 1-1-1-18-2z" fill="#8B909E"/>
<path transform="translate(626,691)" d="m0 0 4 1v4l-14 1-8-1v-2h19z" fill="#7C89A7"/>
<path transform="translate(984,670)" d="m0 0 5 1 1 2 3-1 1 6h-6l-3-6z" fill="#D0D2D8"/>
<path transform="translate(1016,614)" d="m0 0h2v6l-1 2v5h-2v-7l-1 3h-3l-1-4 2-1 2 1v-2h2z" fill="#8DA4C2"/>
<path transform="translate(770,577)" d="m0 0h12v2h-5v2h-8z" fill="#717E9E"/>
<path transform="translate(555,541)" d="m0 0 5 2v4h-8l1-5z" fill="#DADBE0"/>
<path transform="translate(694,524)" d="m0 0h12l1 2h-2l1 2 3 2h-7l-2-2 3-1h-8z" fill="#0F2948"/>
<path transform="translate(628,684)" d="m0 0h2v3h3l-1 4-4 1-7-2v-1h7l-1-4z" fill="#214285"/>
<path transform="translate(683,678)" d="m0 0h18l1 2-13 1-5 2 2-4z" fill="#BFC5CF"/>
<path transform="translate(867,656)" d="m0 0 4 1-1 4 3-1v4l-4-1-5 1v-2h3l-1-5z" fill="#204D7E"/>
<path transform="translate(830,616)" d="m0 0 18 1v2h-16l-2-1z" fill="#CCD2DB"/>
<path transform="translate(832,590)" d="m0 0 18 2v2h-9l-9-1z" fill="#C8CED7"/>
<path transform="translate(738,585)" d="m0 0h9v3h-2v3h-2v-3h-3l1 3h-3l-1-4z" fill="#7580A2"/>
<path transform="translate(984,534)" d="m0 0h1v14l-2 4-1-2v-9z" fill="#052E4D"/>
<path transform="translate(573,534)" d="m0 0h24v1h-21v2l-13-1v-1z" fill="#AAB2BE"/>
<path transform="translate(742,531)" d="m0 0 2 1-2 3zm-5 0 2 3 3 2-1 2-7 1-3-1v-2h5l-6-1v-1h7z" fill="#143468"/>
<path transform="translate(833,532)" d="m0 0h11l4 1v2h-14z" fill="#B5BDC8"/>
<path transform="translate(593,470)" d="m0 0 2 2 2 5 2 2-7 1-1-5z" fill="#051B28"/>
<path transform="translate(974,445)" d="m0 0 3 1 1 5-3 4h3v2h-2v2h-3z" fill="#95A8C2"/>
<path transform="translate(1014,639)" d="m0 0 1 3-1 2h2l-1 5h-4l-1-2-2 2v-4l5-5z" fill="#1249A9"/>
<path transform="translate(898,639)" d="m0 0h7v5h-5-1v2h-2z" fill="#645A64"/>
<path transform="translate(850,636)" d="m0 0h6l-3 8-7-2 3-3z" fill="#133F77"/>
<path transform="translate(966,613)" d="m0 0 4 1 9 2-1 3h-4l-12-2z" fill="#0C2C42"/>
<path transform="translate(851,592)" d="m0 0 2 3-7 2-3-1-11-1 1-2 18 1z" fill="#07378D"/>
<path transform="translate(449,580)" d="m0 0h9v2h-3v12h-2l-1-12z" fill="#3E404D"/>
<path transform="translate(1018,565)" d="m0 0 1 3 4-1v3l-5 5-4-1v-2h3z" fill="#C6BBA7"/>
<path transform="translate(689,498)" d="m0 0h6v2l-4 1 3 1v2h-9v-3z" fill="#989BA9"/>
<path transform="translate(612,467)" d="m0 0h2l-1 6-2 4-3-1-1-3 3-5z" fill="#E9EBEE"/>
<path transform="translate(690,455)" d="m0 0h9l1 4h-10z" fill="#4E5261"/>
<path transform="translate(956,453)" d="m0 0h5l3 5-7 1-2-1z" fill="#37465F"/>
<path transform="translate(906,453)" d="m0 0h12l-1 2-3 1-1 3h-6l-1-3 5-1-5-1z" fill="#4E6891"/>
<path transform="translate(882,452)" d="m0 0h2l-2 6h-6v-3l-3-1 4-1z" fill="#32475E"/>
<path transform="translate(1038,402)" d="m0 0 4 2 8 8 6 5v2l-4-2-14-14z" fill="#0B2E48"/>
<path transform="translate(889,639)" d="m0 0h7v3l-5 2h-6l1-4 3 1z" fill="#0A3C86"/>
<path transform="translate(840,625)" d="m0 0h2v3h9l-3 2-19-1v-1l11-1z" fill="#0B3B8A"/>
<path transform="translate(851,620)" d="m0 0h6l2 2-3 4h-5l-1-5z" fill="#1F375D"/>
<path transform="translate(967,614)" d="m0 0h13l3 1 2 5h-3l-3-1v-3l-12-1z" fill="#143A63"/>
<path transform="translate(962,603)" d="m0 0h4l-1 4v4l1 4h-4z" fill="#888FAA"/>
<path transform="translate(846,583)" d="m0 0h12l1 3-6 1-3-1h-6z" fill="#ABB0BB"/>
<path transform="translate(1019,573)" d="m0 0h2v3l-3 3h-2v2l-4-1 2-6z" fill="#E7E5DA"/>
<path transform="translate(748,560)" d="m0 0h7v4l-3 1h-10v-1l5-1z" fill="#ADAAB3"/>
<path transform="translate(835,515)" d="m0 0 13 1-1 3h-9l-3-1z" fill="#C2C3CB"/>
<path transform="translate(556,478)" d="m0 0 5 4 2 9-2 5h-1l-1-11h-3z" fill="#ACB3BE"/>
<path transform="translate(902,452)" d="m0 0h16v1l-7 1v1h-17v-1l7-1z" fill="#1E3557"/>
<path transform="translate(780,451)" d="m0 0 15 1 4 2h-21z" fill="#071D2B"/>
<path transform="translate(864,81)" d="m0 0h5l-2 5-1 1h-5v-5z" fill="#013DC3"/>
<path transform="translate(643,707)" d="m0 0 4 1v5l-8 1 1-3v2l3-1-5-2 4-2z" fill="#05293A"/>
<path transform="translate(1006,671)" d="m0 0 2 2 1 6h-7v-3h2l-1-4z" fill="#677BA2"/>
<path transform="translate(603,634)" d="m0 0 9 2 11 1v5l-4-3-12-2-5-1z" fill="#667495"/>
<path transform="translate(1166,586)" d="m0 0h5v6l-4 1-2-2z" fill="#D0D2D8"/>
<path transform="translate(695,562)" d="m0 0h17v3l-17-1z" fill="#DBDFE5"/>
<path transform="translate(696,469)" d="m0 0 9 1v1l-6 2-4 5-3-1 3-3-4 1-1-2 6-1z" fill="#071E2D"/>
<path transform="translate(560,470)" d="m0 0 3 1v3h2v3h2l1 3h-6z" fill="#93868E"/>
<path transform="translate(938,454)" d="m0 0h5v2l-4 1h5v3l-11-1v-3z" fill="#3D5B8B"/>
<path transform="translate(370,93)" d="m0 0 2 1v15h-1l-1-14-8 4-3-1z" fill="#0559CC"/>
<path transform="translate(749,81)" d="m0 0h4l-1 5-1 1h-5l-1-3 1-2z" fill="#0240C4"/>
<path transform="translate(517,783)" d="m0 0h16l9 2v1h-10l-15-2z" fill="#B8B7C0"/>
<path transform="translate(832,655)" d="m0 0 3 2 4-1 2-1 1 5-2 1 1 3-4-2-5-5z" fill="#4271C0"/>
<path transform="translate(950,644)" d="m0 0h8l-2 4-4 1-2 2-2-5z" fill="#0E2F49"/>
<path transform="translate(985,638)" d="m0 0 4 1-3 3 1 4-2 3h-3l1-6-1-4z" fill="#052B41"/>
<path transform="translate(1012,589)" d="m0 0 2 1-3 5-6 2v-3l2-4z" fill="#4565A4"/>
<path transform="translate(1176,581)" d="m0 0h2v3h2v2h-2l2 8-4-1v-7h-2v-2h2z" fill="#2E3848"/>
<path transform="translate(746,577)" d="m0 0h12l1 3h-11l-2-1z" fill="#C9CBD2"/>
<path transform="translate(717,501)" d="m0 0 2 2h-11v2l-11-1v-2z" fill="#B5B4BC"/>
<path transform="translate(836,499)" d="m0 0 16 1-1 2h-14z" fill="#C5C8D0"/>
<path transform="translate(811,459)" d="m0 0 12 1v1l-8 1-1 4h-3z" fill="#6884C2"/>
<path transform="translate(529,681)" d="m0 0h9l-2 2-13 1-6-1v-1z" fill="#8C8590"/>
<path transform="translate(998,613)" d="m0 0h2v2l2 1 1 3-4 2-1 5-1-2h-2l2-6z" fill="#305FA9"/>
<path transform="translate(961,614)" d="m0 0 4 2 6 1v2l-9 1v2l2 1h-3z" fill="#39589F"/>
<path transform="translate(1098,580)" d="m0 0h2v12l-3 3-3-1 3-3z" fill="#4D505B"/>
<path transform="translate(727,572)" d="m0 0h14v3l-14-1z" fill="#D4D8DF"/>
<path transform="translate(815,495)" d="m0 0 6 2-4 1-12 1v-3z" fill="#2C3D5A"/>
<path transform="translate(842,725)" d="m0 0h3l2 3v3l-7 6 2-4 2-3-2-2h-3v-2z" fill="#C3C3CA"/>
<path transform="translate(924,700)" d="m0 0h10l2 2-7 1-2 2h-3z" fill="#9698A4"/>
<path transform="translate(910,663)" d="m0 0h3l1 3 3 1-1 2-2-1v3l-3-1 1-2h-5v-2h2z" fill="#99A2B2"/>
<path transform="translate(1045,651)" d="m0 0h6l2 1v3l-8 1z" fill="#133169"/>
<path transform="translate(993,635)" d="m0 0 2 2v6h4v2l-4 1-3-1-2 1-1-4 4-2z" fill="#0448B5"/>
<path transform="translate(878,638)" d="m0 0h7l4 1v2h-3l-2 3-1-2-6-2z" fill="#113357"/>
<path transform="translate(691,609)" d="m0 0 8 1 1 3h-8l-6-1v-2z" fill="#B9B2B8"/>
<path transform="translate(855,595)" d="m0 0h6l3 2v2l-5 1-2-2-1 1h-7v-1h6z" fill="#8B8997"/>
<path transform="translate(696,550)" d="m0 0h7v2h-2v4h-6z" fill="#857D86"/>
<path transform="translate(836,537)" d="m0 0h16l-2 3-14-1z" fill="#D3D8E0"/>
<path transform="translate(690,486)" d="m0 0h15v2l-8 1-7-1z" fill="#BABAC2"/>
<path transform="translate(411,92)" d="m0 0 2 3v5h15v5l-1-4-16 1z" fill="#0559CC"/>
<path transform="translate(805,74)" d="m0 0 5 1 1 4h-9z" fill="#013FC4"/>
<path transform="translate(846,693)" d="m0 0h11l8 1v1l-12 1-4 2v-3z" fill="#99A1B0"/>
<path transform="translate(967,650)" d="m0 0 2 1-1 2 2 1h-2v2h-2v3h-2l-2-8 5 1z" fill="#4272C3"/>
<path transform="translate(591,631)" d="m0 0 9 2 3 2-4 1-2 1-7-3z" fill="#0F2E5C"/>
<path transform="translate(1112,584)" d="m0 0 3 3 1 3 3-6 1 3-3 7-3-1z" fill="#393F4C"/>
<path transform="translate(834,565)" d="m0 0h7l6 2v2l-13-1z" fill="#C3CAD4"/>
<path transform="translate(746,531)" d="m0 0h22l-4 2-1 2v-2l-4 1v-2l-4 1-9-1z" fill="#293C5C"/>
<path transform="translate(666,513)" d="m0 0 1 4-1 15h-1v-6l-4-2 3-1 1-6-2-1z" fill="#034FC8"/>
<path transform="translate(937,465)" d="m0 0 15 1v2h-11l-3 1z" fill="#717E98"/>
<path transform="translate(569,447)" d="m0 0 2 4h5v1h-6l-1 8h-1l-1-11z" fill="#B2B4BD"/>
<path transform="translate(706,434)" d="m0 0h10l-2 1v3h-8z" fill="#718AAE"/>
<path transform="translate(464,777)" d="m0 0h7l-1 5-4-1v3h-2z" fill="#344371"/>
<path transform="translate(977,662)" d="m0 0 6 2 1 2-1 2 5-2 2 2-1 1h-7l-1-2-3-1z" fill="#0341AF"/>
<path transform="translate(606,640)" d="m0 0 9 2 7 1v7l-1-4-10-3-5-2z" fill="#989FAD"/>
<path transform="translate(819,640)" d="m0 0 5 1 1 4-5 2z" fill="#162F49"/>
<path transform="translate(990,616)" d="m0 0 2 3-1 4h-4l-1 2-1-2 2-5z" fill="#05335C"/>
<path transform="translate(861,583)" d="m0 0h2l-1 4 2 1v3l-9-1v-2l4-1z" fill="#BAC0CA"/>
<path transform="translate(744,581)" d="m0 0h10l1 3h-11z" fill="#C0C7D1"/>
<path transform="translate(726,578)" d="m0 0 8 1v1h-8v3h-5v-4z" fill="#515E71"/>
<path transform="translate(1028,573)" d="m0 0 3 1v6l-2 2-4-4z" fill="#D3C6AC"/>
<path transform="translate(768,574)" d="m0 0 14 1v2h-14z" fill="#D8DCE3"/>
<path transform="translate(1021,573)" d="m0 0h3v6l-3 3 1-4-2 1-2 3-1-3 2-3h2z" fill="#DFD6BB"/>
<path transform="translate(707,552)" d="m0 0h10l8 1-1 2h-9l-10-1z" fill="#212F3F"/>
<path transform="translate(697,543)" d="m0 0 8 1v1h-6v3h-7v-3z" fill="#515866"/>
<path transform="translate(692,532)" d="m0 0h9v4l-9-1z" fill="#0C294A"/>
<path transform="translate(540,528)" d="m0 0 3 1 2 7h-3v8h-1z" fill="#7F7680"/>
<path transform="translate(685,525)" d="m0 0 1 3h9l4 2h-8l-1 3h-2l-1-3-4-1z" fill="#152A3E"/>
<path transform="translate(727,503)" d="m0 0h9l4 1v2h-12z" fill="#A6A5AF"/>
<path transform="translate(693,488)" d="m0 0h12l7 1v1l-14 1-3 1v-2l-3-1z" fill="#132939"/>
<path transform="translate(674,786)" d="m0 0 13 1 2 2h-14z" fill="#D3D6DD"/>
<path transform="translate(820,717)" d="m0 0 4 2-9 8h-2l2-4 4-1z" fill="#C0C3CB"/>
<path transform="translate(869,662)" d="m0 0 1 2h4v2l2 1-5-1v2l-5-1v-3z" fill="#102C43"/>
<path transform="translate(830,614)" d="m0 0h8l8 2v1h-9l-7-1z" fill="#083F9D"/>
<path transform="translate(705,608)" d="m0 0h2v2l6 1v1l-11 1-2 1-1-4h6z" fill="#0E202D"/>
<path transform="translate(999,596)" d="m0 0h2l-1 3-2 1v5h-3v-2l-2-1v-3l4-1z" fill="#082F4B"/>
<path transform="translate(764,573)" d="m0 0h5l-1 4 2 1-2 4h-7v-1h6l-1-2-3-2h3z" fill="#112535"/>
<path transform="translate(764,564)" d="m0 0h8v1h-5v3h-7l-1-3z" fill="#A0A5B6"/>
<path transform="translate(755,560)" d="m0 0 2 2-1 2h8v1h-5l1 3-8-4h3zm-4 8h7v1h-7z" fill="#172B3F"/>
<path transform="translate(832,544)" d="m0 0 14 1-1 2h-13z" fill="#CBCFD7"/>
<path transform="translate(861,504)" d="m0 0 9 1v2h-16v-1z" fill="#B7BEC9"/>
<path transform="translate(592,443)" d="m0 0 3 1 1 4 1 3-3 1-2-4-2-1-1 4v-5l3-1z" fill="#B4B6BF"/>
<path transform="translate(633,706)" d="m0 0h4v2l-2 2v3h-8l4-2-1-2z" fill="#96939D"/>
<path transform="translate(574,679)" d="m0 0 4 1-10 3h-8v-1h5v-2z" fill="#ABB3BE"/>
<path transform="translate(960,645)" d="m0 0h11l-1 2-7 1-3 2z" fill="#142A3F"/>
<path transform="translate(663,618)" d="m0 0 8 1 4 3h-9l-4-2z" fill="#CCCED4"/>
<path transform="translate(1024,611)" d="m0 0 1 2h3v2l-2 1-2 6-2-1 1-5-1-4z" fill="#C2CAD3"/>
<path transform="translate(1e3 588)" d="m0 0h2l-1 6-1 2 6-1v2l-6 2-2-1v-5l2-4z" fill="#B4BDC9"/>
<path transform="translate(769,583)" d="m0 0h12v3l-12-1z" fill="#CFD2D9"/>
<path transform="translate(692,582)" d="m0 0h11v3h-8l-3-1z" fill="#D1D5DC"/>
<path transform="translate(970,507)" d="m0 0 13 1v1h-12l1 5h-3z" fill="#6A82B8"/>
<path transform="translate(827,503)" d="m0 0h4l-1 7h-4v-6z" fill="#566680"/>
<path transform="translate(692,465)" d="m0 0h9l5 1v1h-7v2h-2v-2h-8z" fill="#203145"/>
<path transform="translate(976,450)" d="m0 0 3 1v2l8 1v1h-8l-1 2v-2h-3z" fill="#093B74"/>
<path transform="translate(844,432)" d="m0 0 12 1v2h-12z" fill="#C2C9D3"/>
<path transform="translate(394,69)" d="m0 0h2l1 13h-1l-2-10-10 2 2-2z" fill="#0559CC"/>
<path transform="translate(936,708)" d="m0 0 3 1-3 5h-4l-2 4-2 1v-3l2-1 1-3 3-1z" fill="#545161"/>
<path transform="translate(657,687)" d="m0 0 3 1-6 4v3l-4 1 1-5z" fill="#737C8E"/>
<path transform="translate(949,663)" d="m0 0h2v2l7 1-2 4-4-1z" fill="#6B646E"/>
<path transform="translate(854,646)" d="m0 0h4v2h2v3l-6 1-1-4z" fill="#062B40"/>
<path transform="translate(685,614)" d="m0 0h7l1 3-9 1z" fill="#6C6F7B"/>
<path transform="translate(852,613)" d="m0 0h9v4l-8-1z" fill="#BEC5D0"/>
<path transform="translate(1e3 593)" d="m0 0h1v7l2 1-5 2h-3l1-4 3-2z" fill="#2762C7"/>
<path transform="translate(1123,584)" d="m0 0h5l1 1v9l-3-2 1-2-2-2h2v-2h-5z" fill="#27313F"/>
<path transform="translate(988,578)" d="m0 0 4 2 2 2-3 1-2-2-2 3h-4l1 4h-2v-5h3l1-3h2z" fill="#A2ADBB"/>
<path transform="translate(663,517)" d="m0 0h2v6l-4 1-1-6z" fill="#8B99AB"/>
<path transform="translate(685,470)" d="m0 0h11v3h-12z" fill="#A19DA6"/>
<path transform="translate(603,469)" d="m0 0 3 1v10l-1 1h-9v-1l9-1v-6h-2z" fill="#8D7C83"/>
<path transform="translate(811,449)" d="m0 0h14l-3 2-10 2z" fill="#4F77BE"/>
<path transform="translate(917,719)" d="m0 0 5 1v2h-2l-2 5-4-1 2-1z" fill="#8D8590"/>
<path transform="translate(1026,647)" d="m0 0h1v9h-5l2-6z" fill="#083575"/>
<path transform="translate(899,642)" d="m0 0 1 2h5v2l2 2-2 3-2-3-4-1-1-4z" fill="#C3BEBB"/>
<path transform="translate(1028,613)" d="m0 0h1v7l-5 3 1-8h3z" fill="#093B82"/>
<path transform="translate(703,583)" d="m0 0 1 2 3 1h-3v2h-8l1-3h6z" fill="#103466"/>
<path transform="translate(461,580)" d="m0 0 3 1 2 5-1 3-2-4-1 9h-1z" fill="#102332"/>
<path transform="translate(651,575)" d="m0 0 5 4v4l-4-2-3-3v-2z" fill="#142F47"/>
<path transform="translate(706,554)" d="m0 0h9v3h-9z" fill="#A59FA7"/>
<path transform="translate(756,524)" d="m0 0h7l1 3 2 1-1 1h-7l-2-2h6v-2h-6z" fill="#04419B"/>
<path transform="translate(838,524)" d="m0 0h9l1 2-2 1h-8z" fill="#D5DAE1"/>
<path transform="translate(689,523)" d="m0 0 6 2-1 2-5-1 1 3-4-1v-4z" fill="#303945"/>
<path transform="translate(570,462)" d="m0 0 1 2-1 2h-3l1 12-2-4-1-11z" fill="#90787D"/>
<path transform="translate(721,314)" d="m0 0 2 4v2l-4 1h-7l4-2z" fill="#0244C5"/>
<path transform="translate(628,698)" d="m0 0h3l1 4-1 1-8 1-1-2 6-2z" fill="#A9A9B3"/>
<path transform="translate(931,641)" d="m0 0h9l-2 4-4 1 1-2-4-2zm0 2m-1 1 2 2h-2z" fill="#A0979C"/>
<path transform="translate(686,606)" d="m0 0h7v3l-7 1-1 2z" fill="#616775"/>
<path transform="translate(684,537)" d="m0 0h10v3h-10z" fill="#A69CA4"/>
<path transform="translate(768,524)" d="m0 0 2 1h11v1l-9 1-3 1-5-1v-2z" fill="#AAB1BD"/>
<path transform="translate(735,498)" d="m0 0 2 1v3l3 2-10-1 1-3z" fill="#4B576C"/>
<path transform="translate(675,482)" d="m0 0h3v10l-4-1z" fill="#636883"/>
<path transform="translate(546,677)" d="m0 0h7l1 2-5 1h-7l1-2z" fill="#1B2F45"/>
<path transform="translate(999,668)" d="m0 0h2l-1 2zm-5 2h6l1 6h-2l-1-2-4-2z" fill="#0B2D52"/>
<path transform="translate(895,653)" d="m0 0h3v2l2 1h-2v7l2 1h-3l-2-6z" fill="#6685B5"/>
<path transform="translate(994,637)" d="m0 0 5 2v4l-4 1-1-4z" fill="#8C9BB0"/>
<path transform="translate(829,616)" d="m0 0 1 2h8l6 1-2 2-13-1z" fill="#094089"/>
<path transform="translate(697,598)" d="m0 0h11v2l-2 1h-11v-2z" fill="#B9BAC2"/>
<path transform="translate(865,596)" d="m0 0 8 1v3h-8z" fill="#ACA8B0"/>
<path transform="translate(847,570)" d="m0 0 9 1v3l-9-1z" fill="#C3C8D1"/>
<path transform="translate(704,558)" d="m0 0h9v3h-8z" fill="#CBCFD7"/>
<path transform="translate(967,537)" d="m0 0 4 2v5h-4l-1-6z" fill="#6A7899"/>
<path transform="translate(866,534)" d="m0 0 8 1-2 2h-12l2-2z" fill="#052F4B"/>
<path transform="translate(866,506)" d="m0 0 6 2v1h-10l-8-1v-1z" fill="#0846A5"/>
<path transform="translate(557,482)" d="m0 0 3 3 1 6-4 2z" fill="#98A4B4"/>
<path transform="translate(613,471)" d="m0 0 1 3-1 7h-5v-3h3l1-5z" fill="#9DA0AD"/>
<path transform="translate(690,459)" d="m0 0h11v3l-11-1z" fill="#C2C0C7"/>
<path transform="translate(944,444)" d="m0 0 4 1v3h-2v-2l-6 2-3-1v-2z" fill="#506FA9"/>
</svg>
